<?xml version="1.0" encoding="utf-8"?>
<!-- Generator: Adobe Illustrator 16.0.0, SVG Export Plug-In . SVG Version: 6.00 Build 0)  -->
<!DOCTYPE svg PUBLIC "-//W3C//DTD SVG 1.1//EN" "http://www.w3.org/Graphics/SVG/1.1/DTD/svg11.dtd">
<svg version="1.1" id="Calque_1" xmlns="http://www.w3.org/2000/svg" xmlns:xlink="http://www.w3.org/1999/xlink" x="0px" y="0px"
	 width="114.22px" height="43px" viewBox="0 0 114.22 43" enable-background="new 0 0 114.22 43" xml:space="preserve">
<g>
	<g>
		<path fill="#575B5B" d="M59.88,24.21c0,1.18,0.21,1.97,0.63,2.35c0.42,0.38,1.04,0.58,1.88,0.58c0.7,0,1.32-0.09,1.88-0.28
			c0.56-0.19,1.08-0.43,1.57-0.75c0.49-0.31,0.95-0.68,1.39-1.11c0.44-0.43,0.88-0.89,1.32-1.38h1.18c-0.49,0.81-1.04,1.6-1.67,2.37
			c-0.63,0.77-1.33,1.45-2.12,2.06c-0.79,0.6-1.66,1.09-2.61,1.46c-0.95,0.37-2.01,0.56-3.17,0.56c-1.66,0-2.98-0.43-3.98-1.29
			c-0.99-0.86-1.49-2.27-1.49-4.25c0-0.67,0.07-1.44,0.21-2.3c0.14-0.86,0.35-1.74,0.65-2.65c0.29-0.9,0.68-1.79,1.17-2.66
			c0.49-0.87,1.08-1.65,1.77-2.35c0.7-0.7,1.51-1.25,2.44-1.67c0.93-0.42,1.98-0.63,3.17-0.63c0.77,0,1.4,0.09,1.9,0.28
			c0.5,0.19,0.89,0.44,1.18,0.75c0.29,0.31,0.49,0.67,0.59,1.06c0.1,0.4,0.16,0.81,0.16,1.25c0,0.97-0.22,1.89-0.66,2.75
			c-0.44,0.86-1.03,1.61-1.77,2.25c-0.74,0.64-1.59,1.15-2.55,1.53c-0.96,0.38-1.96,0.61-3,0.68c-0.02,0.26-0.04,0.5-0.05,0.73
			C59.88,23.78,59.88,24,59.88,24.21z M65.24,15.57c0-0.44-0.06-0.78-0.19-1.04c-0.13-0.25-0.35-0.38-0.68-0.38
			c-0.44,0-0.87,0.21-1.29,0.62c-0.42,0.42-0.81,0.95-1.18,1.61c-0.37,0.66-0.7,1.4-0.99,2.23c-0.29,0.83-0.53,1.67-0.71,2.53
			c0.67-0.04,1.32-0.23,1.93-0.55c0.61-0.32,1.15-0.74,1.62-1.25c0.46-0.51,0.83-1.09,1.1-1.75C65.11,16.94,65.24,16.26,65.24,15.57
			z"/>
		<path fill="#575B5B" d="M73.52,24.28c-0.12,0.46-0.17,0.87-0.17,1.22c0,0.37,0.09,0.68,0.26,0.91c0.18,0.23,0.49,0.35,0.96,0.35
			c0.12,0,0.26-0.01,0.43-0.02c0.17-0.01,0.33-0.04,0.47-0.09c-0.25,0.74-0.53,1.34-0.83,1.79c-0.3,0.45-0.62,0.8-0.94,1.04
			c-0.32,0.24-0.65,0.4-0.97,0.47c-0.33,0.07-0.64,0.1-0.94,0.1c-1.23,0-2.12-0.38-2.66-1.13c-0.55-0.75-0.82-1.69-0.82-2.8
			c0-0.6,0.07-1.22,0.21-1.84l2.23-10.44h-1.15l0.28-1.39h1.15l1.05-4.8l5.15-0.7c-0.12,0.46-0.23,0.99-0.35,1.57
			c-0.12,0.49-0.24,1.07-0.38,1.74c-0.14,0.67-0.29,1.41-0.45,2.19h2.09l-0.28,1.39h-2.09L73.52,24.28z"/>
	</g>
	<g>
		<path fill="#575B5B" d="M98.16,12.44l-2.54,11.84c-0.09,0.39-0.14,0.77-0.14,1.11c0,0.49,0.12,0.82,0.35,1.01
			c0.23,0.19,0.59,0.28,1.08,0.28c0.67,0,1.25-0.29,1.72-0.87c0.47-0.58,0.84-1.31,1.1-2.19h1.46c-0.49,1.42-1.04,2.54-1.65,3.36
			c-0.61,0.82-1.24,1.45-1.88,1.88c-0.64,0.43-1.26,0.7-1.86,0.82c-0.6,0.12-1.14,0.17-1.6,0.17c-0.95,0-1.72-0.25-2.32-0.76
			c-0.59-0.51-0.96-1.27-1.1-2.26c-0.26,0.39-0.56,0.79-0.9,1.18c-0.35,0.4-0.74,0.74-1.17,1.04c-0.43,0.3-0.9,0.55-1.41,0.73
			c-0.51,0.19-1.08,0.28-1.71,0.28c-0.6,0-1.18-0.1-1.72-0.3c-0.55-0.2-1.04-0.52-1.48-0.96c-0.44-0.44-0.79-1.01-1.04-1.72
			c-0.26-0.71-0.38-1.58-0.38-2.63c0-0.79,0.08-1.64,0.24-2.54c0.16-0.9,0.41-1.81,0.73-2.72c0.32-0.9,0.73-1.77,1.22-2.61
			c0.49-0.84,1.07-1.57,1.74-2.21s1.42-1.15,2.25-1.53c0.82-0.38,1.75-0.57,2.77-0.57c0.28,0,0.57,0.02,0.89,0.05
			c0.31,0.03,0.6,0.11,0.87,0.24c0.27,0.13,0.5,0.31,0.7,0.56c0.2,0.24,0.33,0.56,0.4,0.96l0.35-1.64H98.16z M91.03,14.43
			c-0.74,0-1.42,0.34-2.02,1.03c-0.6,0.68-1.12,1.52-1.53,2.51c-0.42,0.99-0.74,2.03-0.97,3.14c-0.23,1.1-0.35,2.06-0.35,2.87
			c0,0.68,0.06,1.19,0.19,1.55c0.13,0.36,0.28,0.63,0.45,0.8c0.17,0.18,0.36,0.28,0.56,0.31c0.2,0.04,0.38,0.05,0.54,0.05
			c0.26,0,0.53-0.06,0.82-0.19c0.29-0.13,0.57-0.32,0.85-0.58c0.28-0.25,0.52-0.57,0.73-0.96c0.21-0.38,0.37-0.83,0.49-1.34
			l1.67-7.87c0-0.09-0.03-0.21-0.09-0.36c-0.06-0.15-0.14-0.3-0.24-0.44c-0.1-0.14-0.24-0.26-0.42-0.37
			C91.53,14.48,91.3,14.43,91.03,14.43z"/>
		<path fill="#575B5B" d="M104.53,24.21c-0.05,0.19-0.08,0.36-0.1,0.52c-0.02,0.16-0.03,0.33-0.03,0.49c0,0.4,0.1,0.73,0.31,0.99
			c0.21,0.27,0.58,0.4,1.11,0.4c0.33,0,0.56-0.02,0.71-0.07c0.15-0.04,0.28-0.09,0.4-0.14c-0.05,0.63-0.19,1.17-0.42,1.62
			c-0.23,0.45-0.52,0.83-0.87,1.13c-0.35,0.3-0.74,0.53-1.18,0.68c-0.44,0.15-0.89,0.23-1.36,0.23c-1.04,0-1.93-0.34-2.65-1.01
			c-0.72-0.67-1.08-1.75-1.08-3.24c0-0.63,0.09-1.38,0.28-2.26l3.72-17.44l5.15-0.7L104.53,24.21z"/>
		<path fill="#575B5B" d="M108.33,27.24c0-0.77,0.27-1.42,0.8-1.97c0.53-0.54,1.18-0.82,1.95-0.82c0.77,0,1.42,0.27,1.97,0.82
			c0.54,0.55,0.82,1.2,0.82,1.97c0,0.77-0.27,1.42-0.82,1.95c-0.54,0.53-1.2,0.8-1.97,0.8c-0.76,0-1.41-0.27-1.95-0.8
			C108.6,28.66,108.33,28,108.33,27.24z"/>
	</g>
	<g>
		<path fill="#006666" d="M21.42,25.53c-0.92,1.02-1.95,1.87-3.12,2.55c-1.16,0.68-2.4,1.18-3.7,1.5c-1.31,0.32-2.65,0.47-4.02,0.46
			c-1.37-0.02-2.7-0.21-4-0.58c-1.38-0.4-2.52-0.94-3.41-1.62c-0.89-0.68-1.57-1.44-2.04-2.27c-0.46-0.83-0.72-1.72-0.77-2.67
			c-0.05-0.95,0.05-1.89,0.32-2.83c0.3-1.05,0.79-2.08,1.47-3.08c0.68-1.01,1.51-1.9,2.48-2.67c0.97-0.77,2.05-1.37,3.26-1.81
			c1.2-0.44,2.46-0.63,3.79-0.57c-0.74-0.89-1.2-1.81-1.37-2.78c-0.18-0.97-0.13-1.91,0.13-2.82c0.3-1.04,0.83-2.01,1.59-2.9
			c0.75-0.89,1.67-1.63,2.76-2.21c1.09-0.59,2.28-0.97,3.58-1.15c1.3-0.18,2.64-0.07,4.02,0.33c0.86,0.25,1.64,0.59,2.32,1.02
			c0.68,0.43,1.25,0.94,1.69,1.53c0.44,0.6,0.73,1.25,0.86,1.95c0.14,0.71,0.09,1.48-0.15,2.31c-0.35,1.21-0.95,2.12-1.81,2.73
			c-0.86,0.61-1.72,0.79-2.59,0.54c-0.78-0.23-1.35-0.78-1.71-1.67c0.28-0.01,0.57-0.1,0.87-0.27c0.3-0.17,0.58-0.4,0.85-0.69
			c0.27-0.28,0.51-0.59,0.72-0.94c0.2-0.34,0.36-0.69,0.46-1.04c0.24-0.83,0.15-1.48-0.25-1.96c-0.41-0.48-0.9-0.8-1.48-0.97
			c-0.63-0.18-1.27-0.19-1.91-0.02c-0.64,0.17-1.23,0.46-1.77,0.88c-0.55,0.42-1.02,0.95-1.44,1.57c-0.41,0.62-0.72,1.28-0.92,1.98
			c-0.17,0.59-0.26,1.19-0.26,1.8c-0.01,0.61,0.1,1.21,0.32,1.79c0.22,0.59,0.55,1.14,0.99,1.66c0.44,0.52,1.03,0.98,1.75,1.4
			c-1.22-0.09-2.4,0.07-3.55,0.48c-1.15,0.41-2.19,0.98-3.13,1.69c-0.94,0.72-1.75,1.53-2.42,2.46c-0.67,0.93-1.14,1.85-1.4,2.76
			c-0.32,1.12-0.28,2.18,0.12,3.15c0.4,0.97,1.34,1.67,2.81,2.09c0.66,0.19,1.4,0.31,2.21,0.36c0.81,0.04,1.64,0,2.47-0.14
			c0.83-0.14,1.64-0.37,2.42-0.7c0.78-0.33,1.47-0.77,2.07-1.33L21.42,25.53z"/>
		<path fill="#006666" d="M30.68,37.63l3.63-17.11c-1.19-0.53-2.29-0.93-3.28-1.18c-0.99-0.25-2-0.42-3.04-0.52
			c-0.88,1.92-1.7,3.89-2.45,5.92c-0.75,2.03-1.4,3.98-1.93,5.87c-0.53,1.88-0.96,3.65-1.27,5.3c-0.31,1.65-0.47,3.07-0.47,4.27
			c0,0.91,0.07,1.56,0.21,1.93c0.14,0.38,0.29,0.68,0.45,0.9c-0.63,0-1.31-0.03-2.05-0.09c-0.74-0.06-1.42-0.25-2.05-0.57
			c-0.63-0.32-1.15-0.81-1.58-1.48c-0.42-0.68-0.64-1.63-0.64-2.85c0-1.07,0.17-2.33,0.5-3.77c0.33-1.45,0.8-3.01,1.41-4.69
			c0.61-1.68,1.34-3.44,2.19-5.28c0.85-1.84,1.79-3.65,2.83-5.45c-1.48,0.09-2.69,0.32-3.63,0.68c-0.94,0.36-1.57,0.94-1.89,1.75
			c0.13,0,0.26,0.16,0.4,0.47c0.14,0.31,0.21,0.64,0.21,0.98c0,0.56-0.26,1.01-0.78,1.33c-0.52,0.33-1.14,0.49-1.86,0.49
			c-0.82,0-1.51-0.23-2.07-0.68c-0.57-0.46-0.85-1.14-0.85-2.05c0-0.78,0.24-1.53,0.73-2.24c0.49-0.71,1.16-1.33,2-1.86
			c0.85-0.53,1.85-0.95,3.02-1.25c1.16-0.3,2.42-0.45,3.77-0.45c0.69,0,1.54,0.05,2.54,0.14c1.19-1.88,2.46-3.65,3.8-5.33
			c1.33-1.67,2.71-3.15,4.13-4.41c1.41-1.27,2.84-2.27,4.29-3.01c1.44-0.74,2.88-1.1,4.29-1.1c0.47,0,1.05,0.05,1.74,0.14
			c0.69,0.09,1.32,0.27,1.89,0.52c0,0-5.42,29.15-7.71,31.85C34.73,37.65,30.68,37.63,30.68,37.63z M37.47,5.62
			c-1.41,0.75-2.85,2.14-4.31,4.16c-1.46,2.02-2.85,4.35-4.17,6.98c0.98,0.19,1.95,0.42,2.92,0.68c0.97,0.27,1.92,0.59,2.83,0.97
			L37.47,5.62z"/>
	</g>
</g>
</svg>
