<?xml version="1.0" encoding="UTF-8" standalone="no"?>
<!-- Generator: Adobe Illustrator 16.0.0, SVG Export Plug-In . SVG Version: 6.00 Build 0)  -->

<svg
   xmlns:dc="http://purl.org/dc/elements/1.1/"
   xmlns:cc="http://creativecommons.org/ns#"
   xmlns:rdf="http://www.w3.org/1999/02/22-rdf-syntax-ns#"
   xmlns:svg="http://www.w3.org/2000/svg"
   xmlns="http://www.w3.org/2000/svg"
   xmlns:sodipodi="http://sodipodi.sourceforge.net/DTD/sodipodi-0.dtd"
   xmlns:inkscape="http://www.inkscape.org/namespaces/inkscape"
   version="1.1"
   id="Calque_1"
   x="0px"
   y="0px"
   width="546.94098"
   height="131.68829"
   viewBox="0 0 546.94099 131.68829"
   enable-background="new 0 0 369.99 130"
   xml:space="preserve"
   inkscape:version="0.91 r13725"
   sodipodi:docname="logo_beta.svg"><metadata
     id="metadata23"><rdf:RDF><cc:Work
         rdf:about=""><dc:format>image/svg+xml</dc:format><dc:type
           rdf:resource="http://purl.org/dc/dcmitype/StillImage" /><dc:title></dc:title></cc:Work></rdf:RDF></metadata><defs
     id="defs21" /><sodipodi:namedview
     pagecolor="#ffffff"
     bordercolor="#666666"
     borderopacity="1"
     objecttolerance="10"
     gridtolerance="10"
     guidetolerance="10"
     inkscape:pageopacity="0"
     inkscape:pageshadow="2"
     inkscape:window-width="1078"
     inkscape:window-height="616"
     id="namedview19"
     showgrid="false"
     inkscape:zoom="0.89191602"
     inkscape:cx="319.53681"
     inkscape:cy="66.688293"
     inkscape:window-x="132"
     inkscape:window-y="43"
     inkscape:window-maximized="0"
     inkscape:current-layer="Calque_1"
     showguides="false"
     fit-margin-top="0"
     fit-margin-left="0"
     fit-margin-right="0"
     fit-margin-bottom="0" /><g
     id="g3"><path
       d="M 38.61,130 C 26.45,130 16.99,126.38 10.19,119.14 3.4,111.9 0,101.53 0,88.07 L 0,80.88 C 0,66.59 3.11,55.62 9.36,47.87 c 6.22,-7.75 15.18,-11.6 26.8,-11.6 11.36,0 19.9,3.63 25.65,10.88 5.74,7.25 8.66,18.01 8.78,32.25 l 0,11.59 -47.04,0 c 0.34,6.79 1.81,11.7 4.44,14.85 2.6,3.15 6.66,4.7 12.11,4.7 7.92,0 14.5,-2.78 19.81,-8.28 l 9.26,14.31 c -2.89,4 -7.09,7.25 -12.62,9.74 -5.5,2.42 -11.51,3.69 -17.94,3.69 z m -14.89,-55.5 23.65,0 0,-2.19 C 47.28,66.86 46.38,62.76 44.69,59.93 43.03,57.11 40.13,55.72 36,55.72 c -4.13,0 -7.1,1.48 -8.96,4.45 -1.89,3.01 -2.99,7.77 -3.32,14.33 z"
       id="path5"
       inkscape:connector-curvature="0"
       style="fill:#444342" /><path
       d="m 111.44,15.71 0,22.22 12.11,0 0,17.71 -12.11,0 0,44.91 c 0,3.58 0.5,6.04 1.46,7.4 0.96,1.36 2.86,1.97 5.63,1.97 2.29,0 4.15,-0.16 5.6,-0.55 l -0.17,18.39 c -4,1.49 -8.35,2.24 -13.03,2.24 -15.25,0 -22.97,-8.74 -23.14,-26.28 l 0,-48.08 -10.44,0 0,-17.71 10.45,0 0,-22.22 23.64,0 z"
       id="path7"
       inkscape:connector-curvature="0"
       style="fill:#444342" /></g><g
     id="g9"><path
       d="m 179.43,128.31 c -0.65,-1.4 -1.33,-3.71 -2,-6.99 -4.22,5.79 -9.96,8.69 -17.2,8.69 -7.58,0 -13.86,-2.51 -18.83,-7.53 -5,-5.02 -7.49,-11.51 -7.49,-19.47 0,-9.46 3.03,-16.77 9.06,-21.98 6.06,-5.16 14.76,-7.79 26.12,-7.94 l 7.19,0 0,-7.23 c 0,-4.08 -0.7,-6.95 -2.1,-8.62 -1.4,-1.66 -3.43,-2.51 -6.1,-2.51 -5.88,0 -8.85,3.45 -8.85,10.35 l -23.65,0 c 0,-8.35 3.15,-15.23 9.4,-20.66 6.27,-5.43 14.2,-8.14 23.78,-8.14 9.92,0 17.57,2.57 23.03,7.73 5.43,5.14 8.11,12.51 8.11,22.09 l 0,42.54 c 0.15,7.77 1.26,13.87 3.38,18.26 l 0,1.42 -23.85,0 z m -13.94,-16.84 c 2.61,0 4.85,-0.56 6.68,-1.62 1.83,-1.06 3.21,-2.29 4.1,-3.74 l 0,-18.79 -5.7,0 c -4,0 -7.15,1.25 -9.47,3.81 -2.32,2.56 -3.46,6.01 -3.46,10.31 0.01,6.65 2.61,10.03 7.85,10.03 z"
       id="path11"
       inkscape:connector-curvature="0"
       style="fill:#00b290" /><path
       d="m 241.82,128.31 -23.69,0 0,-128.31 23.69,0 0,128.31 z"
       id="path13"
       inkscape:connector-curvature="0"
       style="fill:#00b290" /><path
       d="m 260.14,14.55 c 0,-3.69 1.16,-6.68 3.53,-9.02 2.31,-2.34 5.45,-3.53 9.36,-3.53 3.86,0 6.99,1.18 9.31,3.53 2.37,2.34 3.53,5.33 3.53,9.02 0,3.62 -1.14,6.61 -3.43,9.02 -2.35,2.39 -5.44,3.59 -9.4,3.59 -3.96,0 -7.11,-1.21 -9.4,-3.59 -2.35,-2.41 -3.5,-5.4 -3.5,-9.02 z m 24.83,113.76 -23.74,0 0,-90.38 23.74,0 0,90.38 z"
       id="path15"
       inkscape:connector-curvature="0"
       style="fill:#00b290" /><path
       d="m 346.18,128.31 c -0.68,-1.4 -1.35,-3.71 -1.97,-6.99 -4.25,5.79 -9.99,8.69 -17.23,8.69 -7.58,0 -13.83,-2.51 -18.83,-7.53 -5,-5.02 -7.49,-11.51 -7.49,-19.47 0,-9.46 3,-16.77 9.06,-21.98 6.06,-5.16 14.75,-7.79 26.09,-7.94 l 7.19,0 0,-7.23 c 0,-4.08 -0.7,-6.95 -2.04,-8.62 -1.4,-1.66 -3.45,-2.51 -6.1,-2.51 -5.94,0 -8.88,3.45 -8.88,10.35 l -23.62,0 c 0,-8.35 3.1,-15.23 9.4,-20.66 6.25,-5.43 14.17,-8.14 23.72,-8.14 9.95,0 17.6,2.57 23.03,7.73 5.43,5.14 8.17,12.51 8.17,22.09 l 0,42.54 c 0.09,7.77 1.2,13.87 3.33,18.26 l 0,1.42 -23.83,0 z m -13.97,-16.84 c 2.66,0 4.88,-0.56 6.71,-1.62 1.83,-1.06 3.21,-2.29 4.07,-3.74 l 0,-18.79 -5.64,0 c -4.06,0 -7.18,1.25 -9.53,3.81 -2.29,2.56 -3.43,6.01 -3.43,10.31 0,6.65 2.61,10.03 7.82,10.03 z"
       id="path17"
       inkscape:connector-curvature="0"
       style="fill:#00b290" /></g><text
     xml:space="preserve"
     style="font-style:normal;font-weight:normal;font-size:104.0174942px;line-height:125%;font-family:sans-serif;letter-spacing:0px;word-spacing:0px;fill:#000000;fill-opacity:1;stroke:none;stroke-width:1px;stroke-linecap:butt;stroke-linejoin:miter;stroke-opacity:1"
     x="376.85489"
     y="129.35196"
     id="text4170"
     sodipodi:linespacing="125%"><tspan
       sodipodi:role="line"
       id="tspan4172"
       x="376.85489"
       y="129.35196"
       style="font-style:normal;font-variant:normal;font-weight:normal;font-stretch:normal;font-family:'Shadows Into Light';-inkscape-font-specification:'Shadows Into Light, ';fill:#ff6b07;fill-opacity:0.94509804">beta</tspan></text>
</svg>