<?xml version="1.0" standalone="no"?>
<!DOCTYPE svg PUBLIC "-//W3C//DTD SVG 20010904//EN"
 "http://www.w3.org/TR/2001/REC-SVG-20010904/DTD/svg10.dtd">
<svg version="1.0" xmlns="http://www.w3.org/2000/svg"
 width="208.000000pt" height="208.000000pt" viewBox="0 0 208.000000 208.000000"
 preserveAspectRatio="xMidYMid meet">
<metadata>
Created by potrace 1.11, written by Peter Selinger 2001-2013
</metadata>
<g transform="translate(0.000000,208.000000) scale(0.100000,-0.100000)"
fill="#000000" stroke="none">
<path d="M1430 1750 l0 -170 -80 0 -80 0 0 -135 0 -135 80 0 80 0 0 -389 c0
-429 7 -501 57 -592 33 -61 70 -94 143 -127 45 -21 71 -26 145 -26 49 -1 118
5 153 13 l62 14 0 143 0 144 -66 0 c-36 0 -74 5 -84 10 -35 19 -40 74 -40 448
l0 362 95 0 95 0 0 135 0 135 -95 0 -95 0 0 170 0 170 -185 0 -185 0 0 -170z"/>
<path d="M515 1598 c-89 -17 -186 -71 -251 -140 -71 -76 -116 -164 -146 -284
-19 -77 -22 -116 -22 -294 0 -232 10 -293 69 -416 129 -267 492 -371 801 -230
72 33 154 94 173 128 12 24 9 32 -54 129 -37 57 -69 105 -70 107 -2 2 -25 -13
-52 -34 -26 -20 -68 -46 -93 -57 -56 -25 -201 -35 -254 -17 -76 25 -123 86
-145 188 -21 102 -61 92 351 92 l361 0 -6 163 c-6 182 -25 289 -68 393 -57
138 -179 238 -326 269 -76 16 -192 18 -268 3z m217 -315 c33 -16 65 -75 72
-130 3 -21 8 -57 11 -80 l5 -43 -180 0 -181 0 6 48 c16 110 46 181 88 204 54
29 124 29 179 1z"/>
</g>
</svg>
