<?xml version="1.0" encoding="utf-8"?>
<!-- Generator: Adobe Illustrator 16.0.0, SVG Export Plug-In . SVG Version: 6.00 Build 0)  -->
<!DOCTYPE svg PUBLIC "-//W3C//DTD SVG 1.1//EN" "http://www.w3.org/Graphics/SVG/1.1/DTD/svg11.dtd">
<svg version="1.1" id="Calque_1" xmlns="http://www.w3.org/2000/svg" xmlns:xlink="http://www.w3.org/1999/xlink" x="0px" y="0px"
	 width="369.99px" height="130px" viewBox="0 0 369.99 130" enable-background="new 0 0 369.99 130" xml:space="preserve">
<g>
	<path fill="#444342" d="M38.61,130c-12.16,0-21.62-3.62-28.42-10.86C3.4,111.9,0,101.53,0,88.07v-7.19
		c0-14.29,3.11-25.26,9.36-33.01c6.22-7.75,15.18-11.6,26.8-11.6c11.36,0,19.9,3.63,25.65,10.88c5.74,7.25,8.66,18.01,8.78,32.25
		v11.59H23.55c0.34,6.79,1.81,11.7,4.44,14.85c2.6,3.15,6.66,4.7,12.11,4.7c7.92,0,14.5-2.78,19.81-8.28l9.26,14.31
		c-2.89,4-7.09,7.25-12.62,9.74C51.05,128.73,45.04,130,38.61,130z M23.72,74.5h23.65v-2.19c-0.09-5.45-0.99-9.55-2.68-12.38
		c-1.66-2.82-4.56-4.21-8.69-4.21c-4.13,0-7.1,1.48-8.96,4.45C25.15,63.18,24.05,67.94,23.72,74.5z"/>
	<path fill="#444342" d="M111.44,15.71v22.22h12.11v17.71h-12.11v44.91c0,3.58,0.5,6.04,1.46,7.4c0.96,1.36,2.86,1.97,5.63,1.97
		c2.29,0,4.15-0.16,5.6-0.55l-0.17,18.39c-4,1.49-8.35,2.24-13.03,2.24c-15.25,0-22.97-8.74-23.14-26.28V55.64H77.35V37.93H87.8
		V15.71H111.44z"/>
</g>
<g>
	<path fill="#00B290" d="M179.43,128.31c-0.65-1.4-1.33-3.71-2-6.99c-4.22,5.79-9.96,8.69-17.2,8.69c-7.58,0-13.86-2.51-18.83-7.53
		c-5-5.02-7.49-11.51-7.49-19.47c0-9.46,3.03-16.77,9.06-21.98c6.06-5.16,14.76-7.79,26.12-7.94h7.19v-7.23
		c0-4.08-0.7-6.95-2.1-8.62c-1.4-1.66-3.43-2.51-6.1-2.51c-5.88,0-8.85,3.45-8.85,10.35h-23.65c0-8.35,3.15-15.23,9.4-20.66
		c6.27-5.43,14.2-8.14,23.78-8.14c9.92,0,17.57,2.57,23.03,7.73c5.43,5.14,8.11,12.51,8.11,22.09v42.54
		c0.15,7.77,1.26,13.87,3.38,18.26v1.42H179.43z M165.49,111.47c2.61,0,4.85-0.56,6.68-1.62c1.83-1.06,3.21-2.29,4.1-3.74V87.32
		h-5.7c-4,0-7.15,1.25-9.47,3.81c-2.32,2.56-3.46,6.01-3.46,10.31C157.65,108.09,160.25,111.47,165.49,111.47z"/>
	<path fill="#00B290" d="M241.82,128.31h-23.69V0h23.69V128.31z"/>
	<path fill="#00B290" d="M260.14,14.55c0-3.69,1.16-6.68,3.53-9.02c2.31-2.34,5.45-3.53,9.36-3.53c3.86,0,6.99,1.18,9.31,3.53
		c2.37,2.34,3.53,5.33,3.53,9.02c0,3.62-1.14,6.61-3.43,9.02c-2.35,2.39-5.44,3.59-9.4,3.59c-3.96,0-7.11-1.21-9.4-3.59
		C261.29,21.16,260.14,18.17,260.14,14.55z M284.97,128.31h-23.74V37.93h23.74V128.31z"/>
	<path fill="#00B290" d="M346.18,128.31c-0.68-1.4-1.35-3.71-1.97-6.99c-4.25,5.79-9.99,8.69-17.23,8.69
		c-7.58,0-13.83-2.51-18.83-7.53c-5-5.02-7.49-11.51-7.49-19.47c0-9.46,3-16.77,9.06-21.98c6.06-5.16,14.75-7.79,26.09-7.94h7.19
		v-7.23c0-4.08-0.7-6.95-2.04-8.62c-1.4-1.66-3.45-2.51-6.1-2.51c-5.94,0-8.88,3.45-8.88,10.35h-23.62c0-8.35,3.1-15.23,9.4-20.66
		c6.25-5.43,14.17-8.14,23.72-8.14c9.95,0,17.6,2.57,23.03,7.73c5.43,5.14,8.17,12.51,8.17,22.09v42.54
		c0.09,7.77,1.2,13.87,3.33,18.26v1.42H346.18z M332.21,111.47c2.66,0,4.88-0.56,6.71-1.62c1.83-1.06,3.21-2.29,4.07-3.74V87.32
		h-5.64c-4.06,0-7.18,1.25-9.53,3.81c-2.29,2.56-3.43,6.01-3.43,10.31C324.39,108.09,327,111.47,332.21,111.47z"/>
</g>
</svg>
