<?xml version="1.0" encoding="UTF-8" standalone="no"?>
<!-- Created with Inkscape (http://www.inkscape.org/) -->
<svg id="svg45279" xmlns:rdf="http://www.w3.org/1999/02/22-rdf-syntax-ns#" xmlns="http://www.w3.org/2000/svg" height="62.168mm" width="28.222mm" version="1.1" xmlns:cc="http://creativecommons.org/ns#" xmlns:dc="http://purl.org/dc/elements/1.1/" viewBox="0 0 100 220.28039">
 <metadata id="metadata45284">
  <rdf:RDF>
   <cc:Work rdf:about="">
    <dc:format>image/svg+xml</dc:format>
    <dc:type rdf:resource="http://purl.org/dc/dcmitype/StillImage"/>
    <dc:title/>
   </cc:Work>
  </rdf:RDF>
 </metadata>
 <g id="layer1" transform="translate(-175.71 -159.36)">
  <g id="g45843">
   <g id="g17061" transform="matrix(.60446 0 0 .60446 -169.73 1753.5)">
    <path id="path13438-7" d="m701.9-2552.7c-0.62167-0.7697-5.0528-1.3581-9.8464-1.3073-4.7938 0.05-11.174-0.5016-14.179-1.2283l-5.4635-1.3213 0.60746-24.574c0.33352-13.516 1.0447-26.008 1.5798-27.761 2.0248-6.636-1.4489-7.9515-22.479-8.5117-20.138-0.5368-20.907-0.3985-20.422 3.6732 0.27748 2.3267 1.1005 15.994 1.8293 30.372 1.0723 21.168 0.88242 26.503-0.99828 28.043-1.2768 1.0464-8.1397 1.9784-15.25 2.0718-6.8767 1.3172-14.411-4.6126-11.127 5.9759 2.4507 7.9025 8.0585 14.958 27.346 34.405 9.0344 9.109 17.127 18.103 17.984 19.986 1.3205 2.903 3.5431 1.3427 14.597-10.251 15.536-16.294 37.005-43.022 36.973-46.032-0.023-1.1775-0.53176-2.7706-1.1536-3.5408zm-29.271 29.403c-8.3368 8.5811-16.203 17.234-17.48 19.228-2.1448 3.3493-2.7874 3.0814-8.4054-3.5012-3.3455-3.9201-11.551-12.446-18.235-18.948-6.6834-6.5011-12.631-12.777-13.218-13.946-0.67771-1.3512 3.1598-2.1705 10.538-2.2489l11.603-0.1234 0.9646-6.5555c0.5305-3.6056 0.0565-18.008-1.0537-32.005-1.1104-13.997-1.7929-25.58-1.5175-25.74 0.27602-0.159 7.3927-0.061 15.816 0.221l15.315 0.5119 0.0836 31.096 0.0836 31.096 11.353 0.5069c7.1015 0.3172 10.971 1.3115 10.332 2.6557-0.56187 1.1816-7.8421 9.1699-16.179 17.751z" fill-opacity=".99216" fill="#f06f27"/>
    <circle id="path17059" opacity="0.99" cx="654.21" stroke-linecap="round" stroke="#f17028" cy="-2554.6" r="80.219" stroke-width="5" fill="none"/>
   </g>
   <g id="g17073" stroke="#8ad2e7" transform="matrix(.60446 0 0 .60446 -326.89 1873.8)">
    <path id="path17067" d="m961.9-2552.7c-0.62167-0.7697-5.0528-1.3581-9.8464-1.3073-4.7938 0.05-11.174-0.5016-14.179-1.2283l-5.4635-1.3213 0.60746-24.574c0.33352-13.516 1.0447-26.008 1.5798-27.761 2.0248-6.636-1.4489-7.9515-22.479-8.5117-20.138-0.5368-20.907-0.3985-20.422 3.6732 0.27748 2.3267 1.1005 15.994 1.8293 30.372 1.0723 21.168 0.88242 26.503-0.99828 28.043-1.2768 1.0464-8.1397 1.9784-15.25 2.0718-6.8767 1.3172-14.411-4.6126-11.127 5.9759 2.4507 7.9025 8.0585 14.958 27.346 34.405 9.0344 9.109 17.127 18.103 17.984 19.986 1.3205 2.903 3.5431 1.3427 14.597-10.251 15.536-16.294 37.005-43.022 36.973-46.032-0.023-1.1775-0.53176-2.7706-1.1536-3.5408zm-29.271 29.403c-8.3368 8.5811-16.203 17.234-17.48 19.228-2.1448 3.3493-2.7874 3.0814-8.4054-3.5012-3.3455-3.9201-11.551-12.446-18.235-18.948-6.6834-6.5011-12.631-12.777-13.218-13.946-0.67771-1.3512 3.1598-2.1705 10.538-2.2489l11.603-0.1234 0.9646-6.5555c0.5305-3.6056 0.0565-18.008-1.0537-32.005-1.1104-13.997-1.7929-25.58-1.5175-25.74 0.27602-0.159 7.3927-0.061 15.816 0.221l15.315 0.5119 0.0836 31.096 0.0836 31.096 11.353 0.5069c7.1015 0.3172 10.971 1.3115 10.332 2.6557-0.56187 1.1816-7.8421 9.1699-16.179 17.751z" fill="#8ad2e7"/>
    <circle id="circle17069" opacity="0.99" stroke-width="5" stroke-linecap="round" cy="-2554.6" cx="914.21" r="80.219" fill="none"/>
   </g>
  </g>
 </g>
</svg>
