<?xml version="1.0" encoding="UTF-8" standalone="no"?>
<!-- Created with Inkscape (http://www.inkscape.org/) -->

<svg
   xmlns:dc="http://purl.org/dc/elements/1.1/"
   xmlns:cc="http://creativecommons.org/ns#"
   xmlns:rdf="http://www.w3.org/1999/02/22-rdf-syntax-ns#"
   xmlns:svg="http://www.w3.org/2000/svg"
   xmlns="http://www.w3.org/2000/svg"
   xmlns:sodipodi="http://sodipodi.sourceforge.net/DTD/sodipodi-0.dtd"
   xmlns:inkscape="http://www.inkscape.org/namespaces/inkscape"
   width="197.55556mm"
   height="197.55556mm"
   viewBox="0 0 700.00001 700"
   id="svg50174"
   version="1.1"
   inkscape:version="0.91 r13725"
   sodipodi:docname="bubble_comment.svg">
  <defs
     id="defs50176" />
  <sodipodi:namedview
     id="base"
     pagecolor="#ffffff"
     bordercolor="#666666"
     borderopacity="1.0"
     inkscape:pageopacity="0.0"
     inkscape:pageshadow="2"
     inkscape:zoom="0.35"
     inkscape:cx="-77.857144"
     inkscape:cy="538.57142"
     inkscape:document-units="px"
     inkscape:current-layer="layer1"
     showgrid="false"
     fit-margin-top="0"
     fit-margin-left="0"
     fit-margin-right="0"
     fit-margin-bottom="0"
     inkscape:window-width="1280"
     inkscape:window-height="751"
     inkscape:window-x="0"
     inkscape:window-y="0"
     inkscape:window-maximized="1" />
  <metadata
     id="metadata50179">
    <rdf:RDF>
      <cc:Work
         rdf:about="">
        <dc:format>image/svg+xml</dc:format>
        <dc:type
           rdf:resource="http://purl.org/dc/dcmitype/StillImage" />
        <dc:title></dc:title>
      </cc:Work>
    </rdf:RDF>
  </metadata>
  <g
     inkscape:label="Layer 1"
     inkscape:groupmode="layer"
     id="layer1"
     transform="translate(-35.714287,-370.93362)">
    <rect
       style="opacity:1;fill:#f8f8f8;fill-opacity:0.99215686;stroke:none;stroke-width:10;stroke-linecap:round;stroke-linejoin:round;stroke-miterlimit:4;stroke-dasharray:none;stroke-opacity:1"
       id="rect14720"
       width="700"
       height="700"
       x="35.714287"
       y="370.93362"
       ry="43.165462"
       rx="41.773026"
       inkscape:export-xdpi="45.000008"
       inkscape:export-ydpi="45.000008" />
    <path
       inkscape:connector-curvature="0"
       style="fill:#8ad2e7;fill-opacity:1"
       d="m 646.96373,591.67184 -126.7191,0 c -5.5229,0 -10.1253,4.6024 -10.1253,9.8184 l 0,96.957 c 0,5.5229 4.6024,9.8185 10.1253,9.8185 l 126.4123,0 c 5.5228,0 10.1252,-4.6024 10.1252,-9.8185 l 0,-96.957 c 0,-5.5228 -4.2955,-9.8184 -9.8184,-9.8184 z m 0,101.8662 -34.0577,-33.7508 c -1.841,-1.841 -5.216,-1.841 -7.057,0 -1.841,1.8409 -1.841,5.216 0,7.057 l 31.9099,31.603 -107.3891,0 31.9099,-31.603 c 1.841,-1.841 1.841,-5.2161 0,-7.057 -1.8409,-1.841 -5.216,-1.841 -7.057,0 l -34.9781,34.3645 0,-85.2977 54.3082,54.0014 c 2.7614,2.7614 6.4433,4.2956 10.7389,4.2956 3.9887,0 4.2955,-1.5342 7.3638,-4.2956 l 54.3082,-54.0014 0,84.684 z m -119.6621,-92.0478 112.9119,0 -54.615,54.3082 c -1.841,1.841 -1.841,1.841 -3.6819,0 l -54.615,-54.3082 z"
       id="path11647" />
    <path
       style="opacity:1;fill:#ffffff;fill-opacity:1;stroke:#ffffff;stroke-width:16.57275009;stroke-linecap:round;stroke-linejoin:miter;stroke-miterlimit:4;stroke-dasharray:none;stroke-opacity:1"
       d="m 122.94672,757.14584 0.3629,-213.4084 115.94811,0 48.2665,48.6433 -0.3105,164.7042 z"
       id="path13843"
       inkscape:connector-curvature="0"
       sodipodi:nodetypes="cccccc" />
    <path
       style="fill:none;fill-rule:evenodd;stroke:#b4b4b4;stroke-width:8.26853275;stroke-linecap:butt;stroke-linejoin:miter;stroke-miterlimit:4;stroke-dasharray:none;stroke-opacity:1"
       d="m 148.80223,576.09954 c 93.8404,0 93.8404,0 93.8404,0"
       id="path13845"
       inkscape:connector-curvature="0" />
    <path
       inkscape:connector-curvature="0"
       id="path13847"
       d="m 148.80223,609.24514 c 118.8666,0 118.8666,0 118.8666,0"
       style="fill:none;fill-rule:evenodd;stroke:#b4b4b4;stroke-width:9.30600452;stroke-linecap:butt;stroke-linejoin:miter;stroke-miterlimit:4;stroke-dasharray:none;stroke-opacity:1" />
    <rect
       y="681.91669"
       x="160.68083"
       height="57.131226"
       width="13.704685"
       id="rect13849"
       style="opacity:0.98999999;fill:#5a5a5a;fill-opacity:1;stroke:none;stroke-width:9.33275509;stroke-linecap:round;stroke-linejoin:miter;stroke-miterlimit:4;stroke-dasharray:none;stroke-opacity:1" />
    <rect
       y="699.43365"
       x="181.77556"
       height="39.614246"
       width="13.08123"
       id="rect13851"
       style="opacity:0.98999999;fill:#8f8f8f;fill-opacity:1;stroke:none;stroke-width:10;stroke-linecap:round;stroke-linejoin:miter;stroke-miterlimit:4;stroke-dasharray:none;stroke-opacity:1" />
    <path
       style="fill:none;fill-rule:evenodd;stroke:#3c3c3c;stroke-width:6.62909985;stroke-linecap:round;stroke-linejoin:miter;stroke-miterlimit:4;stroke-dasharray:none;stroke-opacity:1"
       d="m 218.25713,735.69504 10.7716,-14.875 10.7714,7.181 20.0044,-23.0818"
       id="path13853"
       inkscape:connector-curvature="0" />
    <path
       style="fill:none;fill-rule:evenodd;stroke:#b4b4b4;stroke-width:9.30600452;stroke-linecap:butt;stroke-linejoin:miter;stroke-miterlimit:4;stroke-dasharray:none;stroke-opacity:1"
       d="m 148.80223,642.39064 c 118.8666,0 118.8666,0 118.8666,0"
       id="path13855"
       inkscape:connector-curvature="0" />
    <g
       style="fill:#787878;fill-opacity:1;stroke:none;stroke-width:10;stroke-miterlimit:4;stroke-dasharray:none;stroke-opacity:1"
       transform="matrix(0.90876317,0,0,0.94004509,-480.37327,785.17304)"
       id="g13857">
      <path
         style="fill:#787878;fill-opacity:1;fill-rule:evenodd;stroke:none;stroke-width:2.05549383px;stroke-linecap:butt;stroke-linejoin:miter;stroke-opacity:1"
         d="m 795.67113,-265.66568 58.44612,56.92271 -58.44612,0 z"
         id="path13859"
         inkscape:connector-curvature="0" />
    </g>
    <path
       sodipodi:nodetypes="csscssssscccssssccsssssscsscccccsss"
       inkscape:connector-curvature="0"
       id="path13885"
       d="m 411.36733,602.74144 c -0.7697,0.6217 -1.3581,5.0529 -1.3073,9.8464 0.05,4.7938 -0.5016,11.1743 -1.2283,14.1791 l -1.3213,5.4635 -24.5738,-0.6074 c -13.5155,-0.3335 -26.008,-1.0447 -27.7611,-1.5798 -6.636,-2.0248 -7.9515,1.4489 -8.5117,22.4791 -0.5368,20.1378 -0.3985,20.9073 3.6732,20.4215 2.3267,-0.2775 15.9941,-1.1005 30.3718,-1.8292 21.1682,-1.0723 26.5028,-0.8825 28.0428,0.9982 1.0464,1.2768 1.9784,8.1397 2.0718,15.2497 1.3172,6.8767 -4.6126,14.4106 5.9759,11.1266 7.9025,-2.4508 14.9578,-8.0586 34.4051,-27.3463 9.109,-9.0344 18.1027,-17.1271 19.9861,-17.9842 2.903,-1.3205 1.3427,-3.5431 -10.2508,-14.5975 -16.2935,-15.5361 -43.0225,-37.0053 -46.0316,-36.9733 -1.1775,0.023 -2.7706,0.5318 -3.5408,1.1537 z m 29.4033,29.2712 c 8.5811,8.3368 17.2339,16.2034 19.2283,17.4804 3.3493,2.1448 3.0814,2.7874 -3.5012,8.4054 -3.9201,3.3455 -12.4465,11.5515 -18.9476,18.2347 -6.5011,6.6835 -12.7768,12.6315 -13.9457,13.2176 -1.3512,0.6777 -2.1705,-3.1598 -2.2489,-10.5377 l -0.1234,-11.6031 -6.5555,-0.9646 c -3.6056,-0.5305 -18.0078,-0.057 -32.0049,1.0537 -13.9972,1.1104 -25.5802,1.7929 -25.7401,1.5175 -0.159,-0.276 -0.061,-7.3927 0.221,-15.8164 l 0.5119,-15.3153 31.0964,-0.084 31.0961,-0.084 0.5069,-11.353 c 0.3172,-7.1015 1.3115,-10.9708 2.6557,-10.332 1.1816,0.5619 9.1699,7.8421 17.751,16.1794 z"
       style="fill:#f06f27;fill-opacity:0.99215686"
       inkscape:transform-center-x="20.130687"
       inkscape:transform-center-y="56.043432"
       inkscape:export-xdpi="38.57"
       inkscape:export-ydpi="38.57" />
    <g
       transform="matrix(0.77218948,0,0,0.77218948,-1808.8071,643.56204)"
       id="g13887"
       style="fill:#8ad2e7;fill-opacity:0.82156863">
      <rect
         style="opacity:1;fill:#8ad2e7;fill-opacity:0.82156863;stroke:none;stroke-width:4;stroke-linecap:round;stroke-linejoin:miter;stroke-miterlimit:4;stroke-dasharray:none;stroke-opacity:1"
         id="rect13889"
         width="257.96509"
         height="118.15195"
         x="2541.6245"
         y="222.26936"
         rx="17.722792"
         ry="17.125532" />
      <path
         style="fill:#8ad2e7;fill-opacity:0.82156863;fill-rule:evenodd;stroke:none;stroke-width:1px;stroke-linecap:butt;stroke-linejoin:miter;stroke-opacity:1"
         d="m 2625.2597,223.66473 -32.026,-29.93733 0,29.93733 z"
         id="path13891"
         inkscape:connector-curvature="0"
         sodipodi:nodetypes="cccc" />
      <g
         id="g13893"
         transform="translate(-4.4335938e-5,-3.0568831)"
         style="fill:#8ad2e7;fill-opacity:0.82156863">
        <path
           inkscape:connector-curvature="0"
           id="path13895"
           d="m 2569.6334,254.40222 c 201.9474,0 201.9474,0 201.9474,0"
           style="fill:#8ad2e7;fill-opacity:0.82156863;fill-rule:evenodd;stroke:#b4b4b4;stroke-width:9;stroke-linecap:butt;stroke-linejoin:miter;stroke-miterlimit:4;stroke-dasharray:none;stroke-opacity:1" />
        <path
           style="fill:#8ad2e7;fill-opacity:0.82156863;fill-rule:evenodd;stroke:#b4b4b4;stroke-width:9;stroke-linecap:butt;stroke-linejoin:miter;stroke-miterlimit:4;stroke-dasharray:none;stroke-opacity:1"
           d="m 2569.6334,284.40224 c 201.9474,0 201.9474,0 201.9474,0"
           id="path13897"
           inkscape:connector-curvature="0" />
        <path
           inkscape:connector-curvature="0"
           id="path13899"
           d="m 2569.6334,314.40222 c 201.9474,0 201.9474,0 201.9474,0"
           style="fill:#8ad2e7;fill-opacity:0.82156863;fill-rule:evenodd;stroke:#b4b4b4;stroke-width:9;stroke-linecap:butt;stroke-linejoin:miter;stroke-miterlimit:4;stroke-dasharray:none;stroke-opacity:1" />
      </g>
    </g>
  </g>
</svg>
