<?xml version="1.0" encoding="UTF-8" standalone="no"?>
<!-- Created with Inkscape (http://www.inkscape.org/) -->
<svg id="svg11902" xmlns:rdf="http://www.w3.org/1999/02/22-rdf-syntax-ns#" xmlns="http://www.w3.org/2000/svg" height="28.222mm" width="311.82mm" version="1.1" xmlns:cc="http://creativecommons.org/ns#" xmlns:dc="http://purl.org/dc/elements/1.1/" viewBox="0 0 1104.868 99.99997">
 <metadata id="metadata11907">
  <rdf:RDF>
   <cc:Work rdf:about="">
    <dc:format>image/svg+xml</dc:format>
    <dc:type rdf:resource="http://purl.org/dc/dcmitype/StillImage"/>
    <dc:title/>
   </cc:Work>
  </rdf:RDF>
 </metadata>
 <g id="layer1" transform="translate(478.15 -319.51)">
  <path id="path21191" fill="#f17028" d="m405.79 418.11h-34.618-11.086-32.479c-5.251 0-9.5297-3.3063-9.5297-8.3633v-2.3334c0-4.862 3.5006-9.919 7.9737-11.474l19.254-7.7794c1.556-0.5836 3.5007 0.1934 4.084 1.9444 0.5837 1.556-0.1933 3.501-1.9444 4.084l-19.254 7.7793c-1.9447 0.778-3.8897 3.307-3.8897 5.446v2.3334c0 1.751 1.3614 2.14 3.112 2.14h32.479 11.085 34.618c1.7506 0 3.112-0.3897 3.112-2.14v-2.3334c0-2.139-1.7504-4.862-3.89-5.446l-21.393-7.7793c-1.556-0.583-2.5283-2.3333-1.945-4.084 0.5837-1.5554 2.334-2.528 4.0844-1.9444l21.393 7.7794c4.473 1.5553 7.9737 6.6123 7.9737 11.474v2.3334c0.3893 5.2513-3.8897 8.3633-9.1407 8.3633zm-40.064-28.589c-15.559 0-28.394-15.558-28.394-35.007s12.641-35.007 28.394-35.007c15.559 0 28.395 15.559 28.395 35.007 0 19.449-12.642 35.007-28.395 35.007zm0-63.402c-12.058 0-21.976 12.836-21.976 28.589s9.9187 28.589 21.976 28.589c12.058 0 21.977-12.836 21.977-28.589s-9.7237-28.589-21.977-28.589z"/>
  <g id="g22488" fill="#ee712b" transform="matrix(.98604 0 0 .98604 -2701.1 1873.7)">
   <path id="path6203" d="m2665.2-1476.9c-0.3659-0.3658-0.6288-2.1193-0.6288-4.192v-3.5632h12.052 12.052v3.8739c0 3.0491-0.1765 3.9417-0.8289 4.192-1.6482 0.6325-21.982 0.3534-22.646-0.3107zm-0.5012-48.897 0.1344-38.522 11.004-0.021c6.0522-0.011 11.417-0.01 11.921 0.01 0.8648 0.027 0.917 2.2233 0.917 38.543v38.514h-12.055-12.055zm-0.1276-45c0-3.0491 0.1764-3.9416 0.8288-4.192 1.0809-0.4147 21.365-0.4147 22.446 0 0.6524 0.2504 0.8289 1.1429 0.8289 4.192v3.874h-12.052-12.052z"/>
   <g id="g7327" transform="matrix(.33196 .056684 -.056684 .33196 2534.9 -2075)">
    <path id="path7329" d="m871.45 1643.3c-3.1454-15.512-3.1-15.775 2.9535-17.059 2.9937-0.6351 9.7928-1.5984 15.109-2.1409 5.3163-0.5426 11.965-1.6458 14.775-2.4517 2.8098-0.8057 5.8763-1.465 6.8147-1.465 2.2221 0 6.1268 21.596 4.245 23.478-0.77301 0.773-8.3753 2.4121-16.894 3.6423-8.5187 1.2303-17.699 2.708-20.401 3.284-4.8926 1.0427-4.919 1.0135-6.6022-7.2876zm-4.8234-24.29c0-0.8594-1.4322-9.5243-3.1828-19.256-1.7506-9.7312-4.2277-24.345-5.5051-32.475-1.2774-8.1301-3.2807-18.633-4.452-23.34-1.1714-4.7068-2.5992-12.759-3.173-17.894-0.57376-5.1346-2.3436-15.638-3.9332-23.34-1.5894-7.7023-3.321-17.155-3.8478-21.006-0.52691-3.851-2.2944-14.004-3.9278-22.562-1.6334-8.5581-4.1245-22.562-5.5361-31.12-1.4114-8.5581-3.9206-23.612-5.5761-33.454-5.4559-32.435-5.4461-30.463-0.16048-32.305 8.6309-3.0088 36.205-7.2011 37.52-5.7045 1.4685 1.6704 7.3405 28.889 8.7036 40.344 0.50917 4.2789 2.2887 14.432 3.9546 22.562 1.6659 8.1302 4.0657 21.084 5.3332 28.786 2.6545 16.132 6.1184 36.275 9.4987 55.238 1.2968 7.2742 3.363 19.178 4.5917 26.452 5.284 31.285 7.1995 42.205 10.236 58.35 1.7705 9.4137 3.5425 18.707 3.9379 20.651 0.87652 4.3113 0.65798 4.396-18.808 7.2852-8.5581 1.2704-17.836 2.7689-20.617 3.3302-3.0253 0.6104-5.0569 0.3928-5.0569-0.5418z" fill="#ee712b"/>
   </g>
   <g id="g7341" transform="matrix(.33543 .029861 -.029861 .33543 2478.5 -2036.4)">
    <path id="path7343" d="m796.23 1596.4c-0.91933-1.1584-2.1352-6.8325-2.7018-12.609-0.92291-9.4096-0.74235-10.505 1.7361-10.526 1.5214-0.016 17.12-1.0526 34.664-2.3114s32.367-2.2989 32.941-2.3114c0.57361-0.016 1.5371 4.5906 2.141 10.229 0.83605 7.8073 0.58731 10.736-1.0432 12.284-1.4073 1.336-10.939 2.6272-27.815 3.768-14.121 0.9547-28.504 2.1514-31.962 2.6597-4.3523 0.6393-6.8031 0.2752-7.96-1.1828zm-4.1919-35.898c-1.1776-10.428-5.5227-61.246-6.4901-75.906-0.77846-11.795-3.0179-36.318-4.689-51.348-0.33311-2.9952-1.367-15.599-2.2976-28.008-0.93069-12.409-2.7074-32.197-3.9483-43.974-3.1931-30.302-3.0435-34.812 1.2447-37.523 5.9425-3.7565 59.826-7.3691 64.612-4.3319 2.1302 1.352 4.2158 17.07 5.8142 43.817 0.53703 8.9858 2.2927 29.292 3.9016 45.124 1.6088 15.832 3.7072 40.228 4.663 54.213 0.95591 13.985 2.0254 26.238 2.3769 27.23 1.1397 3.2161 5.5073 69.878 4.6352 70.75-0.46495 0.465-13.967 1.7345-30.004 2.8214-16.037 1.0868-31.388 2.3862-34.113 2.8876-4.8578 0.894-4.9685 0.7825-5.7065-5.7524zm41.556-2.9688 20.003-1.906-1.0437-7.8684c-0.57407-4.3276-1.309-8.1337-1.633-8.4578-0.99047-0.9903-48.16 2.9689-49.111 4.1222-0.48939 0.5932-0.59166 4.8325-0.2271 9.4206l0.66264 8.342 5.6732-0.8733c3.1202-0.4802 14.674-1.7309 25.676-2.7793z" fill="#ee712b"/>
   </g>
  </g>
  <g id="g21199" transform="matrix(.86312 0 0 .86257 -3152.4 4249.3)" stroke="#f06f27" stroke-linecap="round" stroke-width="12.38" fill="none">
   <path id="path21201" opacity="0.99" d="m3195.7-4549.6a102.06 102.44 0 0 1 -91.03 101.83"/>
   <path id="path21203" opacity="0.99" d="m3166-4549.6a72.329 72.592 0 0 1 -61.26 71.737"/>
   <path id="path21205" opacity="0.99" d="m3137.6-4549.6a43.942 44.101 0 0 1 -32.889 42.683"/>
  </g>
  <path id="path30077-3-8" d="m-233.48 418.11c-27.256 0-49.302-22.046-49.302-49.302s22.045-49.302 49.302-49.302c27.256 0 49.302 22.046 49.302 49.302s-22.046 49.302-49.302 49.302zm0-91.99c-23.649 0-42.688 19.24-42.688 42.888 0 23.649 19.24 42.889 42.688 42.889 23.649 0 42.688-19.24 42.688-42.889 0-23.849-19.039-42.888-42.688-42.888zm11.023 49.703c-1.002 1.6034-2.405 3.006-4.0083 4.0084l-22.847 13.828c-2.6054 1.6034-5.812 1.2024-8.0167-1.002-2.2044-2.2046-2.6054-5.4113-1.002-8.0167l13.828-23.047c1.0024-1.6034 2.4054-3.0064 4.0084-4.0084l23.048-13.829c2.6053-1.6034 5.812-1.2024 8.0166 1.002 2.2044 2.2046 2.6054 5.4113 1.002 8.0166l-14.029 23.048zm5.812-23.849c-0.4006-0.4007-1.002-0.4007-1.4026-0.2l-17.837 10.822c-0.6013 0.2-1.2023 0.6013-1.8036 1.2024h-0.2c-0.2 0-0.2 0.2-0.401 0.2-2.6054 2.6053-2.6054 6.814 0 9.4193 2.6053 2.6053 6.814 2.6053 9.4193 0 0.2-0.2 0.2-0.2 0.2-0.401v-0.2c0.401-0.6013 0.802-1.2023 1.0024-1.8037l10.822-17.837c0.6013-0.2 0.6013-0.8013 0.2-1.2023z" fill-opacity=".99216" fill="#f06f27"/>
  <g id="g30471" transform="matrix(.98604 0 0 .98604 -2803.3 1472.4)">
   <path id="path30209" fill="#f17028" d="m3404.8-1169.2c-15.976 0-28.797 15.78-28.797 35.504s13.018 35.502 28.797 35.502c0.5557 0 1.1065-0.023 1.6543-0.061a37.5 37.5 0 0 1 -0.8887 -6.2753c-0.255 0.011-0.5087 0.025-0.7656 0.025-12.228 0-22.287-13.02-22.287-28.996s10.059-28.994 22.287-28.994c10.656 0 19.421 9.578 21.703 22.381a37.5 37.5 0 0 1 6.1973 -2.3965c-3.1937-15.408-14.559-26.69-27.9-26.69zm-19.48 69.434c-0.4161-0.018-0.836 0.043-1.2305 0.1914l-19.525 7.8907c-4.5365 1.5775-8.0879 6.7057-8.0879 11.637v2.3652c0 5.1285 4.3406 8.4824 9.6661 8.4824h32.938 11.244 28.607a37.5 37.5 0 0 1 -17.105 -6.3125h-11.701-11.242-32.938c-1.7756 0-3.1563-0.3944-3.1563-2.1699v-2.3652c0-2.1694 1.9714-4.7345 3.9434-5.5235l19.527-7.8886c1.777-0.5915 2.5648-2.5646 1.9727-4.1426-0.4436-1.3328-1.6639-2.1092-2.9121-2.1641z"/>
   <g id="g30234" transform="translate(257.71 315.88)" stroke="#f17028" stroke-linecap="round" stroke-width="6.5" fill="none">
    <circle id="path30212" opacity="0.99" stroke-linejoin="round" cx="3187" cy="-1422.1" r="30.686"/>
    <path id="path30214" d="m3167.4-1422.1h39.047" stroke-opacity=".99216"/>
    <path id="path30226" d="m3187-1441.7v39.047" stroke-opacity=".99216"/>
   </g>
  </g>
  <path id="path30478" fill="#ef7029" d="m216.36 383.18c-0.4303 0.865-0.8656 1.946-1.5136 2.8107-2.379 3.244-5.6227 5.4067-9.5147 5.4067h-20.76-19.245c-1.5137 2.3783-5.4061 8.217-15.786 24.219-1.73 2.5947-4.3247 3.892-7.352 3.892-0.865 0-1.7304-0.2167-2.3787-0.435-3.6767-1.0813-7.136-4.541-7.136-8.2174v-19.678h-1.2977-0.4303-0.4297-0.4357c-2.1623 0-3.027 0-3.892-0.2167-4.7576-0.6487-8.6496-4.541-9.7306-9.2984-0.2167-0.649-0.2167-0.865-0.2167-3.4603v-1.7297-0.2133-1.297-43.248-1.2977l0.4303-1.0816v-0.2134c1.081-4.1086 4.325-6.92 8.433-8.001h0.2167 0.2133l0.8647-0.2133h1.0813 78.496 0.8653l0.865 0.2133h0.2134c4.1086 0.865 6.9193 3.46 8.217 7.1357 0.2133 0.6487 0.4353 1.0813 0.4353 1.514l0.2134 0.865v0.865 48.438 2.1623l-0.4301 1.081zm-6.2713-51.682c0-0.2166-0.2133-0.4303-0.2133-0.649-0.6487-1.7296-1.9464-2.5943-3.676-3.0273h-0.4304-78.496c-0.2134 0-0.4304 0-0.4304 0.2133-1.9456 0.4304-3.0273 1.7304-3.4593 3.6764 0 0.2133 0 0.2133-0.2167 0.4353v43.681c0 0.2134 0.2167 4.9737 0.2167 4.9737 0.43 1.9457 1.9457 3.2433 3.8923 3.676h2.811 0.865 0.4354 4.757c1.5136 0 3.0277 1.081 3.46 2.5947v23.787c0 0.648 0.43 1.297 1.2977 1.5137h1.2973c0.6483 0 1.081-0.2167 1.5137-0.8657 5.406-8.2167 16.002-24.002 16.434-25.3 0.6487-1.298 1.7297-2.1627 3.46-2.1627h21.191 20.76c1.7296 0 3.0273-0.6486 3.8923-2.1626 0.435-0.4297 0.6487-1.0807 0.6487-1.7294v-48.655zm-19.678 29.625c-3.8924 0-7.1357-3.0277-7.1357-6.92s3.2433-6.9197 7.1357-6.9197c3.8927 0 7.136 3.0274 7.136 6.9197s-3.2433 6.92-7.136 6.92zm-23.57 0c-3.8923 0-7.1357-3.0277-7.1357-6.92s3.2434-6.9197 7.1357-6.9197c3.8927 0 7.136 3.0274 7.136 6.9197s-3.2433 6.92-7.136 6.92zm-23.57 0c-3.8924 0-7.1364-3.0277-7.1364-6.92s3.244-6.9197 7.1364-6.9197c3.8926 0 7.136 3.0274 7.136 6.9197s-3.2434 6.92-7.136 6.92z"/>
 </g>
</svg>
