<?xml version="1.0" encoding="UTF-8" standalone="no"?>
<!-- Created with Inkscape (http://www.inkscape.org/) -->

<svg
   xmlns:dc="http://purl.org/dc/elements/1.1/"
   xmlns:cc="http://creativecommons.org/ns#"
   xmlns:rdf="http://www.w3.org/1999/02/22-rdf-syntax-ns#"
   xmlns:svg="http://www.w3.org/2000/svg"
   xmlns="http://www.w3.org/2000/svg"
   xmlns:sodipodi="http://sodipodi.sourceforge.net/DTD/sodipodi-0.dtd"
   xmlns:inkscape="http://www.inkscape.org/namespaces/inkscape"
   width="347.99591mm"
   height="70.490036mm"
   viewBox="0 0 1233.0564 249.76784"
   id="svg47221"
   version="1.1"
   inkscape:version="0.91 r13725"
   sodipodi:docname="mark_v3.svg">
  <defs
     id="defs47223">
    <clipPath
       clipPathUnits="userSpaceOnUse"
       id="clipPath47072">
      <rect
         transform="matrix(0.62776136,-0.77840586,0.77840586,0.62776136,0,0)"
         y="711.27625"
         x="1805.1094"
         height="238.97771"
         width="245.70308"
         id="rect47074"
         style="opacity:1;fill:#000000;fill-opacity:0;stroke:#000000;stroke-width:1.36377645;stroke-linecap:round;stroke-linejoin:round;stroke-miterlimit:4;stroke-dasharray:none;stroke-opacity:1" />
    </clipPath>
    <clipPath
       clipPathUnits="userSpaceOnUse"
       id="clipPath46218">
      <rect
         transform="matrix(0.62776136,-0.77840586,0.77840586,0.62776136,0,0)"
         y="723.68689"
         x="1815.4838"
         height="238.97771"
         width="245.70308"
         id="rect46220"
         style="opacity:1;fill:#000000;fill-opacity:0;stroke:#000000;stroke-width:1.36377645;stroke-linecap:round;stroke-linejoin:round;stroke-miterlimit:4;stroke-dasharray:none;stroke-opacity:1" />
    </clipPath>
    <clipPath
       clipPathUnits="userSpaceOnUse"
       id="clipPath46214">
      <rect
         style="opacity:1;fill:#000000;fill-opacity:0;stroke:#000000;stroke-width:1.36377645;stroke-linecap:round;stroke-linejoin:round;stroke-miterlimit:4;stroke-dasharray:none;stroke-opacity:1"
         id="rect46216"
         width="245.70308"
         height="238.97771"
         x="1815.4838"
         y="723.68689"
         transform="matrix(0.62776136,-0.77840586,0.77840586,0.62776136,0,0)" />
    </clipPath>
    <clipPath
       clipPathUnits="userSpaceOnUse"
       id="clipPath46218-9">
      <rect
         transform="matrix(0.62776136,-0.77840586,0.77840586,0.62776136,0,0)"
         y="723.68689"
         x="1815.4838"
         height="238.97771"
         width="245.70308"
         id="rect46220-8"
         style="opacity:1;fill:#000000;fill-opacity:0;stroke:#000000;stroke-width:1.36377645;stroke-linecap:round;stroke-linejoin:round;stroke-miterlimit:4;stroke-dasharray:none;stroke-opacity:1" />
    </clipPath>
  </defs>
  <sodipodi:namedview
     id="base"
     pagecolor="#ffffff"
     bordercolor="#666666"
     borderopacity="1.0"
     inkscape:pageopacity="0.0"
     inkscape:pageshadow="2"
     inkscape:zoom="0.35"
     inkscape:cx="160.09959"
     inkscape:cy="142.02678"
     inkscape:document-units="px"
     inkscape:current-layer="layer1"
     showgrid="false"
     fit-margin-top="5"
     fit-margin-left="5"
     fit-margin-right="5"
     fit-margin-bottom="5"
     inkscape:window-width="1280"
     inkscape:window-height="751"
     inkscape:window-x="0"
     inkscape:window-y="0"
     inkscape:window-maximized="1" />
  <metadata
     id="metadata47226">
    <rdf:RDF>
      <cc:Work
         rdf:about="">
        <dc:format>image/svg+xml</dc:format>
        <dc:type
           rdf:resource="http://purl.org/dc/dcmitype/StillImage" />
        <dc:title></dc:title>
      </cc:Work>
    </rdf:RDF>
  </metadata>
  <g
     inkscape:label="Layer 1"
     inkscape:groupmode="layer"
     id="layer1"
     transform="translate(-294.90041,-424.62115)">
    <g
       transform="matrix(1.2234273,0,0,1.2234273,489.14559,1883.6616)"
       id="g320329"
       inkscape:export-xdpi="10.364217"
       inkscape:export-ydpi="10.364217">
      <g
         id="g320306"
         transform="translate(-762,-442.56729)">
        <text
           sodipodi:linespacing="125%"
           id="text320308"
           y="-582.22186"
           x="764.5249"
           style="font-style:normal;font-weight:normal;font-size:175px;line-height:125%;font-family:sans-serif;letter-spacing:0px;word-spacing:0px;fill:#000000;fill-opacity:1;stroke:none;stroke-width:1px;stroke-linecap:butt;stroke-linejoin:miter;stroke-opacity:1"
           xml:space="preserve"><tspan
             style="font-style:normal;font-variant:normal;font-weight:500;font-stretch:normal;font-family:Lato;-inkscape-font-specification:'Lato Medium'"
             y="-582.22186"
             x="764.5249"
             id="tspan320310"
             sodipodi:role="line">PubStream</tspan></text>
      </g>
      <rect
         clip-path="url(#clipPath46214)"
         ry="0"
         y="-1084.2646"
         x="1818.9833"
         height="152.50192"
         width="152.50192"
         id="rect320314"
         style="opacity:1;fill:#f06f27;fill-opacity:0.99215686;stroke:none;stroke-width:9;stroke-linecap:round;stroke-linejoin:round;stroke-miterlimit:4;stroke-dasharray:none;stroke-opacity:1"
         transform="matrix(0.84785696,0,0,0.96332256,-1683.4418,-117.5761)" />
      <g
         clip-path="url(#clipPath46218-9)"
         id="g320316"
         transform="matrix(0.83938303,0,0,0.96332256,-1667.0931,-117.5761)">
        <rect
           ry="0"
           y="-1064.7371"
           x="1836.6512"
           height="117.16611"
           width="117.16611"
           id="rect320318"
           style="opacity:1;fill:#f9f9f9;fill-opacity:0.99215686;stroke:none;stroke-width:9;stroke-linecap:round;stroke-linejoin:round;stroke-miterlimit:4;stroke-dasharray:none;stroke-opacity:1" />
        <path
           inkscape:connector-curvature="0"
           id="path320320"
           d="m 1843.6164,-935.23843 c -10.3803,-2.2734 -19.0409,-10.9237 -21.2123,-21.187 -0.376,-1.7774 -0.5358,-17.2528 -0.5358,-51.87977 0,-54.3457 -0.1279,-51.8622 2.9925,-58.1513 2.2491,-4.5328 7.7264,-9.896 12.3319,-12.0748 6.5887,-3.117 3.9298,-2.9816 58.5234,-2.9816 l 49.7098,0 3.8237,1.3038 c 4.7788,1.6293 9.0556,4.4055 12.2118,7.9271 2.7429,3.0605 5.8432,9.0964 6.6254,12.8992 0.3565,1.7327 0.5188,17.9658 0.514,51.3827 -0.012,42.01417 -0.109,49.28107 -0.7334,51.93137 -2.3863,10.1239 -11.1159,18.7118 -21.1915,20.8475 -4.5004,0.954 -98.6972,0.9382 -103.0595,-0.017 z m 78.3885,-28.7745 c 7.8087,-1.5225 16.6059,-5.2811 18.4622,-7.888 1.6674,-2.3417 1.8304,-6.7713 0.3308,-8.9974 -2.6255,-3.8977 -5.7987,-4.122 -13.6495,-0.9646 -5.8727,2.3619 -10.1744,3.335 -14.7914,3.3462 -4.7176,0.011 -8.8396,-0.9415 -17.431,-4.0298 -11.7157,-4.2113 -13.9856,-4.7107 -21.436,-4.7158 -5.6521,0 -6.9865,0.1566 -10.7544,1.2934 -9.563,2.8849 -13.7191,5.7851 -14.3535,10.0163 -0.824,5.4959 3.2562,9.6394 8.6331,8.7668 0.8992,-0.1459 3.307,-1.0162 5.3505,-1.934 10.4124,-4.6762 16.2341,-4.3707 31.8353,1.6707 3.4621,1.3407 7.313,2.742 8.5576,3.1141 5.6125,1.6779 11.7643,1.7808 19.2463,0.3221 z m -3.8352,-31.7241 c 8.6904,-0.9955 18.4005,-4.27047 21.3239,-7.19197 3.9022,-3.8996 3.2026,-10.4838 -1.3431,-12.6409 -2.2985,-1.0907 -6.1653,-0.7091 -9.9318,0.98 -4.6461,2.0835 -9.5383,3.1464 -14.5997,3.1719 -5.4129,0.027 -8.5729,-0.6918 -18.142,-4.1281 -10.5915,-3.8036 -13.0237,-4.3075 -20.7921,-4.3075 -7.3074,0 -9.6042,0.4438 -16.5944,3.2061 -4.907,1.939 -7.4745,3.8466 -8.8579,6.5812 -1.3583,2.6849 -1.3583,4.5056 0,7.1992 2.2333,4.42877 6.1918,4.91967 13.321,1.6517 6.0191,-2.759 9.2539,-3.5835 14.0242,-3.5748 5.0659,0.01 8.3146,0.8256 17.8695,4.4899 12.919,4.95437 15.677,5.48497 23.7224,4.56327 z m 7.9825,-34.19737 c 6.5647,-1.5896 11.5036,-3.7208 13.261,-5.7224 4.7477,-5.4072 1.7775,-13.1145 -5.0541,-13.1145 -0.9773,0 -4.304,0.8692 -7.3928,1.9316 -10.8955,3.7476 -15.3444,3.5052 -30.7722,-1.6767 -12.0703,-4.0542 -15.9359,-4.8031 -22.838,-4.4248 -7.3705,0.4041 -17.7155,3.8432 -21.6993,7.2137 -3.0079,2.5448 -3.8572,7.8743 -1.7127,10.7467 2.9395,3.9372 6.2563,4.1614 13.335,0.9015 5.7171,-2.6328 7.5727,-3.2364 11.3572,-3.6942 5.3199,-0.6436 11.8796,0.8506 22.0357,5.0195 11.7318,4.8156 18.5454,5.4673 29.4802,2.8196 z"
           style="fill:#f06f27;fill-opacity:0.99215686" />
      </g>
      <path
         inkscape:connector-curvature="0"
         id="path320322"
         d="m -39.526355,-1162.1642 0.144328,25.7416 27.473141,-0.433 z"
         style="fill:#fbdbc8;fill-opacity:0.99215686;fill-rule:evenodd;stroke:none;stroke-width:1px;stroke-linecap:butt;stroke-linejoin:miter;stroke-opacity:1"
         sodipodi:nodetypes="cccc" />
    </g>
  </g>
</svg>
