<?xml version="1.0" encoding="UTF-8" standalone="no"?>
<!-- Created with Inkscape (http://www.inkscape.org/) -->

<svg
   xmlns:dc="http://purl.org/dc/elements/1.1/"
   xmlns:cc="http://creativecommons.org/ns#"
   xmlns:rdf="http://www.w3.org/1999/02/22-rdf-syntax-ns#"
   xmlns:svg="http://www.w3.org/2000/svg"
   xmlns="http://www.w3.org/2000/svg"
   xmlns:sodipodi="http://sodipodi.sourceforge.net/DTD/sodipodi-0.dtd"
   xmlns:inkscape="http://www.inkscape.org/namespaces/inkscape"
   id="svg7406"
   height="71.550941mm"
   width="197.1709mm"
   version="1.1"
   viewBox="0 0 698.64018 253.52895"
   inkscape:version="0.91 r13725"
   sodipodi:docname="paper_icons.svg">
  <defs
     id="defs13351" />
  <sodipodi:namedview
     pagecolor="#ffffff"
     bordercolor="#666666"
     borderopacity="1"
     objecttolerance="10"
     gridtolerance="10"
     guidetolerance="10"
     inkscape:pageopacity="0"
     inkscape:pageshadow="2"
     inkscape:window-width="1118"
     inkscape:window-height="539"
     id="namedview13349"
     showgrid="false"
     fit-margin-top="0"
     fit-margin-left="0"
     fit-margin-right="0"
     fit-margin-bottom="0"
     inkscape:zoom="0.62751927"
     inkscape:cx="284.15179"
     inkscape:cy="81.263952"
     inkscape:window-x="20"
     inkscape:window-y="43"
     inkscape:window-maximized="0"
     inkscape:current-layer="svg7406" />
  <metadata
     id="metadata7411">
    <rdf:RDF>
      <cc:Work
         rdf:about="">
        <dc:format>image/svg+xml</dc:format>
        <dc:type
           rdf:resource="http://purl.org/dc/dcmitype/StillImage" />
        <dc:title></dc:title>
      </cc:Work>
    </rdf:RDF>
  </metadata>
  <g
     transform="matrix(1.0589058,-1.1002403,1.1002403,1.0589058,-1360.472,5075.8766)"
     id="g30311"
     style="opacity:0.50800003;stroke-width:4.14045429;stroke-miterlimit:4;stroke-dasharray:none">
    <circle
       style="opacity:0.98999999;fill:none;fill-opacity:0.99215686;stroke:#f17028;stroke-width:4.14045429;stroke-linecap:round;stroke-linejoin:round;stroke-miterlimit:4;stroke-dasharray:none;stroke-opacity:1"
       id="circle30313"
       cx="3186.97"
       cy="-1422.1438"
       r="30.686363" />
    <path
       style="fill:none;fill-rule:evenodd;stroke:#f17028;stroke-width:4.14045429;stroke-linecap:round;stroke-linejoin:miter;stroke-miterlimit:4;stroke-dasharray:none;stroke-opacity:0.99215686"
       d="m 3167.4467,-1422.1439 39.0467,0"
       id="path30316"
       inkscape:connector-curvature="0" />
    <path
       inkscape:connector-curvature="0"
       id="path30318"
       d="m 3186.9701,-1441.6672 0,39.0467"
       style="fill:none;fill-rule:evenodd;stroke:#f17028;stroke-width:4.14045429;stroke-linecap:round;stroke-linejoin:miter;stroke-miterlimit:4;stroke-dasharray:none;stroke-opacity:0.99215686" />
  </g>
  <path
     sodipodi:nodetypes="ssccccccccccssssssccccscccsscscscscsscsssssscsccsssccssscccsssccsssssccssscccsscsccscccccsccccccsccccccccsss"
     id="path30261"
     d="m 297.96351,47.09207 c 0,-5.567444 -4.45403,-10.392382 -9.83577,-10.392382 l -26.35251,0 -0.74201,0 c 1.11331,-1.484712 2.22702,-2.783722 3.52603,-4.639737 0.1867,-0.186701 0.1867,-0.371003 0.371,-0.556704 2.78372,-5.753046 2.44632,-20.924763 0.96171,-24.8221946 C 264.40725,2.969423 262.70323,1.485011 261.77523,1.113709 260.10521,0.371403 258.4352,0 256.95049,0 l 0,0 c -5.01064,0 -6.70005,4.1547327 -8.77137,7.4234584 -0.92771,3.1550256 -10.90009,23.8941866 -20.92117,32.8020576 -1.85601,-1.29901 -4.26833,-1.670113 -6.86675,-1.670113 l -7.42266,0 c -6.49575,0 -11.87749,4.825038 -11.87749,11.505791 l 0,36.74456 c 0,6.680893 5.38174,12.24827 11.87749,12.24827 l 7.42266,0 c 4.26843,0 8.16576,-2.783695 10.20708,-6.124122 l 0,0 c 1.11371,0.556745 2.41272,1.29908 4.26843,2.041416 3.89704,1.670214 9.27908,3.340426 16.51644,3.897106 0.5567,0.18567 1.29901,0.18567 2.04131,0.18567 l 1.29901,0 3.15473,0 0,0 21.71317,0 c 5.38174,0 9.83538,-4.63944 9.83538,-10.206754 0,-2.041516 -0.55661,-3.897201 -1.67002,-5.567474 2.59772,-1.855755 4.45374,-4.825148 4.45374,-8.350976 0,-2.041416 -0.55671,-3.897231 -1.67002,-5.567344 2.78333,-1.855815 4.45374,-4.825038 4.45374,-8.351066 0,-2.041416 -0.74241,-4.082732 -1.67041,-5.567444 2.78372,-1.670213 4.63973,-4.825038 4.63973,-8.350866 z m -70.51985,11.505791 0,28.207893 c 0,3.340466 -2.59842,6.30975 -5.93875,6.30975 l -0.55671,0 -7.79436,0 c -3.34032,0 -5.93874,-2.969284 -5.93874,-6.30975 l 0,-36.74456 c 0,-3.340427 2.59842,-5.567344 5.93874,-5.567344 l 8.35107,0 c 3.34033,0 5.93875,2.412519 5.93875,5.567344 z m 60.68408,-7.794262 -15.77443,0 0,0 -2.22672,0 c -1.67031,0 -2.96932,1.298911 -2.96932,2.969224 0,1.670113 1.29901,2.969123 2.96932,2.969123 l 10.94909,0 0,0 4.26843,0 c 2.22702,0 3.89703,2.041416 3.89703,4.268434 0,2.226918 -1.67001,3.711529 -3.89703,3.711529 l -2.78372,0 -3.34032,0 -9.09348,0 -1.85561,0 c -1.67041,0 -2.96942,1.299111 -2.96942,2.969324 0,1.670213 1.29901,2.969323 2.96942,2.969323 l 0.5566,0 10.20678,0 3.34033,0 c 2.22702,0 3.89703,1.855715 3.89703,4.082633 0,2.227017 -1.67001,3.89713 -3.89703,3.89713 l -1.85561,0 c -0.37141,0 -0.74241,-0.185701 -1.11341,-0.185701 l -12.0627,0 0,0 -1.29901,0 c -1.67041,0 -2.96942,1.29911 -2.96942,2.969363 0,1.670213 1.29901,2.969224 2.96942,2.969224 l 0.3713,0 10.57779,0 3.34032,0 c 1.67032,0.371133 2.96933,2.041416 2.96933,3.897161 0,2.226987 -1.67032,4.082702 -3.89703,4.082702 l -14.28972,0 -10.39248,0 c -0.7423,0 -1.48461,0 -2.41232,-0.185332 -1.85601,-0.185671 -3.52603,-0.371203 -5.01074,-0.556804 -1.29931,-0.185672 -2.41262,-0.556844 -3.34032,-0.742376 -2.78403,-0.556704 -5.01074,-1.29908 -6.68106,-2.041246 -2.04131,-0.927977 -2.41232,-1.670383 -3.15472,-2.227058 -0.1866,-0.185661 -0.3713,-0.185661 -0.3713,-0.371133 l 0,0 0,-35.816823 0,-0.927807 c 0,-0.742306 0,-1.484712 -0.18671,-2.226917 -0.1866,-1.113509 -1.67031,-2.041417 -2.22731,-2.969324 l 0,0 0.7427,-0.742206 0,0 c 3.89703,-3.526028 19.85676,-28.533924 21.52717,-35.214576 0,0 0.55661,-2.9694233 3.52603,-2.9694233 0.74201,0 1.67001,0.1867017 2.59802,0.5567047 2.21462,1.9193146 4.82504,12.2027946 0,22.2241736 0,0 -2.59802,3.711729 -5.75304,7.60876 -0.92801,1.113308 -1.11341,2.59802 -0.55671,3.89703 0.55671,1.299011 1.48471,2.226918 2.96932,2.598321 l 0.18671,0 5.38204,0 11.87709,0 14.28942,0 c 2.22671,0 3.89703,2.226818 3.89703,4.453835 0,2.598021 -1.85562,4.082732 -3.89703,4.082732 z"
     style="opacity:0.50800003;fill:#ef7029;fill-opacity:1;stroke-width:10;stroke-miterlimit:4;stroke-dasharray:none"
     inkscape:connector-curvature="0" />
  <g
     id="g30295"
     transform="matrix(0.70250933,0,0,0.70250933,-1971.5368,871.23207)"
     style="opacity:0.50800003">
    <path
       inkscape:connector-curvature="0"
       id="path30281"
       d="m 2942.4188,-1161.4046 3e-4,66.5703 c 0,5.87 -4.5907,10.5956 -10.2929,10.5956 l -110.4141,0 c -5.7023,0 -10.2929,-4.7256 -10.2929,-10.5956 l 0,-109.8085 c 0,-5.8698 4.5906,-10.5955 10.2929,-10.5955 l 0,0 67.9406,0"
       style="opacity:1;fill:none;fill-opacity:1;stroke:#f17028;stroke-width:10;stroke-linecap:round;stroke-linejoin:round;stroke-miterlimit:4;stroke-dasharray:none;stroke-opacity:1" />
    <g
       transform="translate(-7.0816003,3.1368)"
       style="stroke-width:10;stroke-miterlimit:4;stroke-dasharray:none"
       id="g30288">
      <path
         style="fill:none;fill-rule:evenodd;stroke:#f17028;stroke-width:10;stroke-linecap:butt;stroke-linejoin:miter;stroke-miterlimit:4;stroke-dasharray:none;stroke-opacity:1"
         d="m 2914.0009,-1218.3756 40,0"
         id="path30272"
         inkscape:connector-curvature="0" />
      <path
         inkscape:connector-curvature="0"
         id="path30283"
         d="m 2949.5009,-1222.8756 0,40"
         style="fill:none;fill-rule:evenodd;stroke:#f17028;stroke-width:10;stroke-linecap:butt;stroke-linejoin:miter;stroke-miterlimit:4;stroke-dasharray:none;stroke-opacity:1" />
      <path
         style="fill:none;fill-rule:evenodd;stroke:#f17028;stroke-width:10;stroke-linecap:round;stroke-linejoin:miter;stroke-miterlimit:4;stroke-dasharray:none;stroke-opacity:1"
         d="m 2948.5199,-1218.3328 -51.9555,51.9553"
         id="path30286"
         inkscape:connector-curvature="0" />
    </g>
  </g>
  <path
     style="opacity:0.50800003;fill:#ef7029;fill-opacity:1"
     d="m 601.52961,111.94439 c -1.09271,-1.09255 -1.10971,-1.84978 -1.10971,-48.469789 l 0,-47.360074 1.16801,-1.057009 c 1.11831,-1.012008 2.44432,-1.057008 31.09025,-1.057008 l 29.92223,0 8.30907,8.360366 8.30936,8.360366 0,10.368082 0,10.368382 -3.60702,0 -3.60703,0 0,-8.87867 0,-8.87877 -6.08435,0 c -7.35276,0 -7.23376,0.123401 -7.23376,-7.455059 l 0,-5.308342 -25.5265,0 -25.5262,0 0,42.451635 0,42.45171 32.18525,0 32.18556,0 0,-1.63202 c 0,-0.89766 0.1867,-1.74031 0.4164,-1.87274 0.23,-0.13233 1.85202,-0.11633 3.60703,0.0357 l 3.19062,0.27666 0,3.74093 c 0,2.94426 -0.2433,4.05227 -1.15,5.20304 l -1.15031,1.46215 -37.1393,0 c -36.39998,0 -37.16199,-0.0233 -38.2496,-1.10985 z m 25.7788,-18.009848 -1.36231,-1.362111 0,-15.765725 c 0,-15.109419 0.047,-15.826525 1.15031,-17.227836 l 1.15001,-1.462111 33.48727,0 c 18.41784,0 33.89166,0.155001 34.38567,0.344702 2.25062,0.863807 2.52202,2.824723 2.52202,18.245244 0,15.420622 -0.27,17.381538 -2.52202,18.245255 -0.49401,0.189661 -15.87213,0.344702 -34.17367,0.344702 l -33.27526,0 -1.36202,-1.36212 z m 13.06581,-10.781486 0,-3.264925 3.60103,-0.229402 c 4.05473,-0.258002 6.27505,-1.504512 7.10235,-3.986732 0.71341,-2.139717 0,-5.233841 -1.55861,-6.796253 -1.23701,-1.23711 -1.73301,-1.325311 -7.45476,-1.325311 l -6.12935,0 0,9.433775 0,9.433574 2.21962,0 2.21972,0 0,-3.264826 z m 0,-9.775877 0,-3.052024 2.37372,0 c 2.85732,0 4.84034,1.24691 4.84034,3.043824 0,2.091717 -1.41732,3.060324 -4.47904,3.060324 l -2.73502,0 0,-3.052124 z m 27.00051,11.877294 c 5.26144,-3.251826 5.31644,-13.390706 0.09,-16.577331 -1.53131,-0.933507 -2.79902,-1.122909 -7.52936,-1.124509 l -5.68804,0 0,9.433575 0,9.433774 5.62274,0 c 4.74034,0 5.91765,-0.182701 7.50506,-1.163409 z m -8.68807,-8.270265 0,-6.104149 2.71302,0 c 3.40443,0 5.02474,1.21991 5.55575,4.182033 0.93031,5.190241 -1.03271,8.026264 -5.55575,8.026264 l -2.71302,0 0,-6.104148 z m 19.97716,5.573544 0,-3.860231 4.02343,-0.163001 c 3.93003,-0.159301 4.02733,-0.198302 4.19864,-1.689013 l 0.1767,-1.526113 -4.19874,0 -4.19903,0 0,-2.219617 0,-2.219718 4.71704,0 4.71674,0 0,-1.664813 0,-1.664713 -6.65906,0 -6.65905,0 0,9.433675 0,9.433674 1.94232,0 1.94201,0 0,-3.86013 z"
     id="path30466"
     inkscape:connector-curvature="0" />
  <g
     style="stroke-width:4.14045429;stroke-miterlimit:4;stroke-dasharray:none"
     id="g13188"
     transform="matrix(1.0589058,-1.1002403,1.1002403,1.0589058,-1360.472,5215.8777)">
    <circle
       r="30.686363"
       cy="-1422.1438"
       cx="3186.97"
       id="circle13190"
       style="opacity:0.98999999;fill:none;fill-opacity:0.99215686;stroke:#f17028;stroke-width:4.14045429;stroke-linecap:round;stroke-linejoin:round;stroke-miterlimit:4;stroke-dasharray:none;stroke-opacity:1" />
    <path
       inkscape:connector-curvature="0"
       id="path13192"
       d="m 3167.4467,-1422.1439 39.0467,0"
       style="fill:none;fill-rule:evenodd;stroke:#f17028;stroke-width:4.14045429;stroke-linecap:round;stroke-linejoin:miter;stroke-miterlimit:4;stroke-dasharray:none;stroke-opacity:0.99215686" />
    <path
       style="fill:none;fill-rule:evenodd;stroke:#f17028;stroke-width:4.14045429;stroke-linecap:round;stroke-linejoin:miter;stroke-miterlimit:4;stroke-dasharray:none;stroke-opacity:0.99215686"
       d="m 3186.9701,-1441.6672 0,39.0467"
       id="path13194"
       inkscape:connector-curvature="0" />
  </g>
  <path
     inkscape:connector-curvature="0"
     style="fill:#ef7029;fill-opacity:1;stroke-width:10;stroke-miterlimit:4;stroke-dasharray:none"
     d="m 297.96351,187.09318 c 0,-5.56744 -4.45403,-10.39238 -9.83577,-10.39238 l -26.35251,0 -0.74201,0 c 1.11331,-1.48471 2.22702,-2.78372 3.52603,-4.63974 0.1867,-0.1867 0.1867,-0.371 0.371,-0.5567 2.78372,-5.75305 2.44632,-20.92477 0.96171,-24.8222 -1.48471,-3.71163 -3.18873,-5.19604 -4.11673,-5.56734 -1.67002,-0.74231 -3.34003,-1.11371 -4.82474,-1.11371 l 0,0 c -5.01064,0 -6.70005,4.15473 -8.77137,7.42346 -0.92771,3.15502 -10.90009,23.89419 -20.92117,32.80206 -1.85601,-1.29901 -4.26833,-1.67011 -6.86675,-1.67011 l -7.42266,0 c -6.49575,0 -11.87749,4.82503 -11.87749,11.50579 l 0,36.74457 c 0,6.68089 5.38174,12.24826 11.87749,12.24826 l 7.42266,0 c 4.26843,0 8.16576,-2.78369 10.20708,-6.12411 l 0,0 c 1.11371,0.55674 2.41272,1.29908 4.26843,2.04141 3.89704,1.67021 9.27908,3.34043 16.51644,3.8971 0.5567,0.18567 1.29901,0.18567 2.04131,0.18567 l 1.29901,0 3.15473,0 0,0 21.71317,0 c 5.38174,0 9.83538,-4.63943 9.83538,-10.20675 0,-2.04151 -0.55661,-3.8972 -1.67002,-5.56747 2.59772,-1.85576 4.45374,-4.82515 4.45374,-8.35098 0,-2.04142 -0.55671,-3.89724 -1.67002,-5.56735 2.78333,-1.85582 4.45374,-4.82504 4.45374,-8.35107 0,-2.04141 -0.74241,-4.08273 -1.67041,-5.56744 2.78372,-1.67021 4.63973,-4.82504 4.63973,-8.35087 z m -70.51985,11.50579 0,28.20791 c 0,3.34046 -2.59842,6.30975 -5.93875,6.30975 l -0.55671,0 -7.79436,0 c -3.34032,0 -5.93874,-2.96929 -5.93874,-6.30975 l 0,-36.74457 c 0,-3.34043 2.59842,-5.56735 5.93874,-5.56735 l 8.35107,0 c 3.34033,0 5.93875,2.41252 5.93875,5.56735 z m 60.68408,-7.79426 -15.77443,0 0,0 -2.22672,0 c -1.67031,0 -2.96932,1.29891 -2.96932,2.96923 0,1.67011 1.29901,2.96912 2.96932,2.96912 l 10.94909,0 0,0 4.26843,0 c 2.22702,0 3.89703,2.04142 3.89703,4.26843 0,2.22692 -1.67001,3.71153 -3.89703,3.71153 l -2.78372,0 -3.34032,0 -9.09348,0 -1.85561,0 c -1.67041,0 -2.96942,1.29911 -2.96942,2.96933 0,1.67021 1.29901,2.96932 2.96942,2.96932 l 0.5566,0 10.20678,0 3.34033,0 c 2.22702,0 3.89703,1.85571 3.89703,4.08264 0,2.22702 -1.67001,3.89713 -3.89703,3.89713 l -1.85561,0 c -0.37141,0 -0.74241,-0.1857 -1.11341,-0.1857 l -12.0627,0 0,0 -1.29901,0 c -1.67041,0 -2.96942,1.29911 -2.96942,2.96936 0,1.67022 1.29901,2.96923 2.96942,2.96923 l 0.3713,0 10.57779,0 3.34032,0 c 1.67032,0.37113 2.96933,2.04141 2.96933,3.89716 0,2.22699 -1.67032,4.0827 -3.89703,4.0827 l -14.28972,0 -10.39248,0 c -0.7423,0 -1.48461,0 -2.41232,-0.18533 -1.85601,-0.18567 -3.52603,-0.3712 -5.01074,-0.55681 -1.29931,-0.18567 -2.41262,-0.55684 -3.34032,-0.74237 -2.78403,-0.55671 -5.01074,-1.29908 -6.68106,-2.04125 -2.04131,-0.92797 -2.41232,-1.67038 -3.15472,-2.22705 -0.1866,-0.18567 -0.3713,-0.18567 -0.3713,-0.37114 l 0,0 0,-35.81683 0,-0.92781 c 0,-0.7423 0,-1.48471 -0.18671,-2.22692 -0.1866,-1.1135 -1.67031,-2.04141 -2.22731,-2.96932 l 0,0 0.7427,-0.7422 0,0 c 3.89703,-3.52603 19.85676,-28.53393 21.52717,-35.21458 0,0 0.55661,-2.96943 3.52603,-2.96943 0.74201,0 1.67001,0.18671 2.59802,0.55671 2.21462,1.91931 4.82504,12.20279 0,22.22417 0,0 -2.59802,3.71173 -5.75304,7.60876 -0.92801,1.11331 -1.11341,2.59802 -0.55671,3.89703 0.55671,1.29901 1.48471,2.22692 2.96932,2.59832 l 0.18671,0 5.38204,0 11.87709,0 14.28942,0 c 2.22671,0 3.89703,2.22682 3.89703,4.45384 0,2.59802 -1.85562,4.08273 -3.89703,4.08273 z"
     id="path13196"
     sodipodi:nodetypes="ssccccccccccssssssccccscccsscscscscsscsssssscsccsssccssscccsssccsssssccssscccsscsccscccccsccccccsccccccccsss" />
  <g
     transform="matrix(0.70250933,0,0,0.70250933,-1971.5368,1011.2332)"
     id="g13198">
    <path
       style="opacity:1;fill:none;fill-opacity:1;stroke:#f17028;stroke-width:10;stroke-linecap:round;stroke-linejoin:round;stroke-miterlimit:4;stroke-dasharray:none;stroke-opacity:1"
       d="m 2942.4188,-1161.4046 3e-4,66.5703 c 0,5.87 -4.5907,10.5956 -10.2929,10.5956 l -110.4141,0 c -5.7023,0 -10.2929,-4.7256 -10.2929,-10.5956 l 0,-109.8085 c 0,-5.8698 4.5906,-10.5955 10.2929,-10.5955 l 0,0 67.9406,0"
       id="path13200"
       inkscape:connector-curvature="0" />
    <g
       id="g13202"
       style="stroke-width:10;stroke-miterlimit:4;stroke-dasharray:none"
       transform="translate(-7.0816003,3.1368)">
      <path
         inkscape:connector-curvature="0"
         id="path13204"
         d="m 2914.0009,-1218.3756 40,0"
         style="fill:none;fill-rule:evenodd;stroke:#f17028;stroke-width:10;stroke-linecap:butt;stroke-linejoin:miter;stroke-miterlimit:4;stroke-dasharray:none;stroke-opacity:1" />
      <path
         style="fill:none;fill-rule:evenodd;stroke:#f17028;stroke-width:10;stroke-linecap:butt;stroke-linejoin:miter;stroke-miterlimit:4;stroke-dasharray:none;stroke-opacity:1"
         d="m 2949.5009,-1222.8756 0,40"
         id="path13206"
         inkscape:connector-curvature="0" />
      <path
         inkscape:connector-curvature="0"
         id="path13208"
         d="m 2948.5199,-1218.3328 -51.9555,51.9553"
         style="fill:none;fill-rule:evenodd;stroke:#f17028;stroke-width:10;stroke-linecap:round;stroke-linejoin:miter;stroke-miterlimit:4;stroke-dasharray:none;stroke-opacity:1" />
    </g>
  </g>
  <path
     inkscape:connector-curvature="0"
     id="path13210"
     d="m 601.52961,251.9455 c -1.09271,-1.09254 -1.10971,-1.84978 -1.10971,-48.46979 l 0,-47.36007 1.16801,-1.05701 c 1.11831,-1.01201 2.44432,-1.05701 31.09025,-1.05701 l 29.92223,0 8.30907,8.36037 8.30936,8.36036 0,10.36809 0,10.36838 -3.60702,0 -3.60703,0 0,-8.87867 0,-8.87877 -6.08435,0 c -7.35276,0 -7.23376,0.1234 -7.23376,-7.45506 l 0,-5.30834 -25.5265,0 -25.5262,0 0,42.45163 0,42.45171 32.18525,0 32.18556,0 0,-1.63202 c 0,-0.89766 0.1867,-1.74031 0.4164,-1.87274 0.23,-0.13233 1.85202,-0.11633 3.60703,0.0357 l 3.19062,0.27666 0,3.74093 c 0,2.94426 -0.2433,4.05227 -1.15,5.20304 l -1.15031,1.46215 -37.1393,0 c -36.39998,0 -37.16199,-0.0233 -38.2496,-1.10985 z m 25.7788,-18.00985 -1.36231,-1.36211 0,-15.76572 c 0,-15.10942 0.047,-15.82653 1.15031,-17.22784 l 1.15001,-1.46211 33.48727,0 c 18.41784,0 33.89166,0.155 34.38567,0.3447 2.25062,0.86381 2.52202,2.82472 2.52202,18.24525 0,15.42062 -0.27,17.38153 -2.52202,18.24525 -0.49401,0.18966 -15.87213,0.3447 -34.17367,0.3447 l -33.27526,0 -1.36202,-1.36212 z m 13.06581,-10.78148 0,-3.26493 3.60103,-0.2294 c 4.05473,-0.258 6.27505,-1.50451 7.10235,-3.98673 0.71341,-2.13972 0,-5.23384 -1.55861,-6.79626 -1.23701,-1.23711 -1.73301,-1.32531 -7.45476,-1.32531 l -6.12935,0 0,9.43378 0,9.43357 2.21962,0 2.21972,0 0,-3.26482 z m 0,-9.77588 0,-3.05202 2.37372,0 c 2.85732,0 4.84034,1.24691 4.84034,3.04382 0,2.09172 -1.41732,3.06032 -4.47904,3.06032 l -2.73502,0 0,-3.05212 z m 27.00051,11.87729 c 5.26144,-3.25182 5.31644,-13.3907 0.09,-16.57733 -1.53131,-0.9335 -2.79902,-1.12291 -7.52936,-1.12451 l -5.68804,0 0,9.43358 0,9.43377 5.62274,0 c 4.74034,0 5.91765,-0.1827 7.50506,-1.16341 z m -8.68807,-8.27026 0,-6.10415 2.71302,0 c 3.40443,0 5.02474,1.21991 5.55575,4.18203 0.93031,5.19024 -1.03271,8.02627 -5.55575,8.02627 l -2.71302,0 0,-6.10415 z m 19.97716,5.57354 0,-3.86023 4.02343,-0.163 c 3.93003,-0.1593 4.02733,-0.1983 4.19864,-1.68901 l 0.1767,-1.52611 -4.19874,0 -4.19903,0 0,-2.21962 0,-2.21972 4.71704,0 4.71674,0 0,-1.66481 0,-1.66472 -6.65906,0 -6.65905,0 0,9.43368 0,9.43367 1.94232,0 1.94201,0 0,-3.86013 z"
     style="fill:#ef7029;fill-opacity:1" />
</svg>
