<?xml version="1.0" encoding="UTF-8" standalone="no"?>
<!-- Created with Inkscape (http://www.inkscape.org/) -->

<svg
   xmlns:dc="http://purl.org/dc/elements/1.1/"
   xmlns:cc="http://creativecommons.org/ns#"
   xmlns:rdf="http://www.w3.org/1999/02/22-rdf-syntax-ns#"
   xmlns:svg="http://www.w3.org/2000/svg"
   xmlns="http://www.w3.org/2000/svg"
   xmlns:sodipodi="http://sodipodi.sourceforge.net/DTD/sodipodi-0.dtd"
   xmlns:inkscape="http://www.inkscape.org/namespaces/inkscape"
   width="46.99971"
   height="40"
   id="svg2"
   version="1.1"
   inkscape:version="0.48.2 r9819"
   sodipodi:docname="paperstream_mark.svg"
   inkscape:export-filename="/Users/nicolaspannetier/Projects/paperstream/docs/images/logo/logo2_paperstream.png"
   inkscape:export-xdpi="100"
   inkscape:export-ydpi="100">
  <defs
     id="defs4" />
  <sodipodi:namedview
     id="base"
     pagecolor="#ffffff"
     bordercolor="#666666"
     borderopacity="1.0"
     inkscape:pageopacity="0.0"
     inkscape:pageshadow="2"
     inkscape:zoom="2.79"
     inkscape:cx="91.334314"
     inkscape:cy="-9.1685334"
     inkscape:document-units="px"
     inkscape:current-layer="g4250"
     showgrid="false"
     fit-margin-top="0"
     fit-margin-left="0"
     fit-margin-right="0"
     fit-margin-bottom="0"
     inkscape:window-width="1280"
     inkscape:window-height="752"
     inkscape:window-x="0"
     inkscape:window-y="0"
     inkscape:window-maximized="1"
     showguides="true"
     inkscape:guide-bbox="true" />
  <metadata
     id="metadata7">
    <rdf:RDF>
      <cc:Work
         rdf:about="">
        <dc:format>image/svg+xml</dc:format>
        <dc:type
           rdf:resource="http://purl.org/dc/dcmitype/StillImage" />
        <dc:title></dc:title>
      </cc:Work>
    </rdf:RDF>
  </metadata>
  <g
     inkscape:label="Layer 1"
     inkscape:groupmode="layer"
     id="layer1"
     transform="translate(-345.42112,-636.46277)">
    <g
       id="g4250"
       transform="matrix(0.38368586,0,0,0.38368586,212.88792,416.91357)">
      <rect
         ry="0"
         rx="0"
         y="572.21082"
         x="345.42111"
         height="104.25195"
         width="122.49529"
         id="rect3801-4-0"
         style="fill:#39b3d7;fill-opacity:1;stroke:none" />
      <g
         transform="translate(0,4)"
         id="g4242">
        <g
           id="g4236"
           transform="matrix(0.50714158,0,0,0.50714158,174.21514,334.41465)">
          <path
             sodipodi:nodetypes="ccccc"
             inkscape:connector-curvature="0"
             id="path3119"
             d="m 493.68292,643.514 0,-89.28708 -73.74764,0 -0.35644,88.77576 z"
             style="fill:none;stroke:#ffffff;stroke-width:9;stroke-linecap:round;stroke-linejoin:round;stroke-miterlimit:4;stroke-opacity:1;stroke-dasharray:none" />
          <path
             inkscape:connector-curvature="0"
             id="path3889"
             d="m 436.92826,576.58055 39.40523,0"
             style="fill:none;stroke:#ffffff;stroke-width:9;stroke-linecap:round;stroke-linejoin:miter;stroke-miterlimit:4;stroke-opacity:1;stroke-dasharray:none" />
          <path
             inkscape:connector-curvature="0"
             id="path3889-0"
             d="m 436.92826,624.19521 39.40523,0"
             style="fill:none;stroke:#ffffff;stroke-width:9;stroke-linecap:round;stroke-linejoin:miter;stroke-miterlimit:4;stroke-opacity:1;stroke-dasharray:none" />
          <path
             inkscape:connector-curvature="0"
             id="path3889-1"
             d="m 436.92826,600.38788 39.40523,0"
             style="fill:none;stroke:#ffffff;stroke-width:9;stroke-linecap:round;stroke-linejoin:miter;stroke-miterlimit:4;stroke-opacity:1;stroke-dasharray:none" />
        </g>
        <path
           style="fill:#fffffd;fill-opacity:1"
           inkscape:connector-curvature="0"
           d="m 438.0283,640.32932 c -0.79885,0.19945 -1.39794,0.39938 -2.39653,0.39938 l -1.77672,0 0,0 c -1.79737,0 -2.99565,-1.39794 -2.99565,-3.1953 0,-1.79741 1.39796,-3.19535 3.19538,-3.19535 0.19994,0 0.39939,0 0.39939,0 l 1.1776,0 0,-0.19945 c 5.99127,-0.59917 10.78429,-5.59188 10.78429,-11.78283 0,-6.19096 -4.59338,-11.18367 -10.78429,-11.78284 0,0 0,0 0,-0.19945 0,-8.78713 -7.18951,-15.77695 -15.97673,-15.77695 l -0.19994,0 c -3.79442,-6.39075 -10.58455,-10.5846 -18.57287,-10.5846 -11.78284,0 -21.36883,9.38635 -21.36883,21.16913 l 0,0 c -7.58894,0.59913 -13.38047,6.79008 -13.38047,14.37903 0,12.98107 10.78425,14.57875 10.78425,14.57875 l 0.14753,0 c 0.19994,0 0.19994,0 0.39938,0 4.6068,0.56337 3.47277,6.28912 0,6.3907 0,0 0,0 -0.19992,0 l 0,0 -0.54702,0 c -0.39938,0 -0.59913,0 -0.99855,0 -5.59184,-0.79885 -16.17638,-6.19101 -16.17638,-20.96945 0,-8.98688 5.59183,-16.77551 13.77989,-19.77116 2.39649,-12.7814 13.77989,-22.36739 27.36014,-22.36739 8.78714,0 16.9752,3.99421 22.16765,10.78424 9.18656,1.39802 16.57581,8.18805 18.57292,17.17497 6.59038,2.79594 11.18366,9.38636 11.18366,16.77557 0.19993,8.98687 -5.99125,16.37611 -14.5787,18.17348 z"
           id="path61-3"
           sodipodi:nodetypes="csccsscccscsscsccscsccccscscsccccc" />
      </g>
    </g>
  </g>
</svg>
